<?xml version="1.0" encoding="utf-8" standalone="no"?>
<!DOCTYPE svg PUBLIC "-//W3C//DTD SVG 1.1//EN"
  "http://www.w3.org/Graphics/SVG/1.1/DTD/svg11.dtd">
<!-- Created with matplotlib (http://matplotlib.org/) -->
<svg height="288pt" version="1.1" viewBox="0 0 720 288" width="720pt" xmlns="http://www.w3.org/2000/svg" xmlns:xlink="http://www.w3.org/1999/xlink">
 <defs>
  <style type="text/css">
*{stroke-linecap:butt;stroke-linejoin:round;}
  </style>
 </defs>
 <g id="figure_1">
  <g id="patch_1">
   <path d="
M0 288
L720 288
L720 0
L0 0
z
" style="fill:#ffffff;"/>
  </g>
  <g id="axes_1">
   <g id="patch_2">
    <path d="
M33.7922 165.3
L709.2 165.3
L709.2 10.8
L33.7922 10.8
z
" style="fill:#ffffff;"/>
   </g>
   <g id="line2d_1">
    <path clip-path="url(#p579b2931fc)" d="
M90.0762 163.24
L90.7516 163.24
L90.9767 165.3
L91.427 161.18
L91.8773 165.3
L92.1024 163.24
L94.3538 163.24
L94.5789 37.58
L94.804 35.52
L95.7046 35.52
L95.9297 33.46
L96.1548 35.52
L96.38 33.46
L96.6051 35.52
L102.459 35.52
L102.684 33.46
L102.909 35.52
L106.961 35.52
L107.187 33.46
L107.412 33.46
L107.637 35.52
L109.888 35.52
L110.113 33.46
L110.338 35.52
L111.914 35.52
L112.139 37.58
L112.365 35.52
L113.265 35.52
L113.49 33.46
L113.715 35.52
L114.616 35.52
L114.841 37.58
L115.066 35.52
L116.192 35.52
L116.417 33.46
L116.642 35.52
L117.318 35.52
L117.543 161.18
L117.768 163.24
L118.443 163.24
L118.668 165.3
L118.894 163.24
L119.794 163.24
L120.019 165.3
L120.244 163.24
L120.47 165.3
L120.695 163.24
L123.847 163.24
L124.072 165.3
L124.297 163.24
L125.648 163.24
L125.873 165.3
L126.098 163.24
L126.998 163.24
L127.224 161.18
L127.449 165.3
L127.674 165.3
L127.899 163.24
L129.25 163.24
L129.475 165.3
L129.7 163.24
L130.376 163.24
L130.601 165.3
L130.826 163.24
L131.051 163.24
L131.276 165.3
L131.501 163.24
L134.653 163.24
L134.878 165.3
L135.103 163.24
L135.779 163.24
L136.004 165.3
L136.229 165.3
L136.454 163.24
L138.03 163.24
L138.255 165.3
L138.48 163.24
L138.931 163.24
L139.156 165.3
L139.381 163.24
L139.606 165.3
L139.831 163.24
L140.507 163.24
L140.732 37.58
L141.182 33.46
L141.407 35.52
L142.308 35.52
L142.533 33.46
L142.758 35.52
L142.983 33.46
L143.208 33.46
L143.433 35.52
L143.659 33.46
L143.884 35.52
L147.711 35.52
L147.936 33.46
L148.161 35.52
L149.512 35.52
L149.737 33.46
L149.962 35.52
L150.638 35.52
L150.863 33.46
L151.088 35.52
L152.214 35.52
L152.439 33.46
L152.664 35.52
L152.889 33.46
L153.114 35.52
L153.565 35.52
L153.79 33.46
L154.015 35.52
L155.816 35.52
L156.041 33.46
L156.266 35.52
L156.942 35.52
L157.167 37.58
L157.392 35.52
L161.444 35.52
L161.669 33.46
L161.895 33.46
L162.12 35.52
L163.47 35.52
L163.696 163.24
L163.921 163.24
L164.146 165.3
L164.371 165.3
L164.596 163.24
L166.397 163.24
L166.622 165.3
L166.848 163.24
L167.298 163.24
L167.523 165.3
L167.748 163.24
L168.423 163.24
L168.649 165.3
L168.874 163.24
L170.45 163.24
L170.675 165.3
L170.9 163.24
L171.125 165.3
L171.35 163.24
L171.575 163.24
L171.801 165.3
L172.026 165.3
L172.251 163.24
L174.502 163.24
L174.727 165.3
L174.952 163.24
L175.178 165.3
L175.403 165.3
L175.628 163.24
L176.078 163.24
L176.303 165.3
L176.528 165.3
L176.754 163.24
L178.104 163.24
L178.329 165.3
L178.78 165.3
L179.005 163.24
L179.455 163.24
L179.68 165.3
L179.905 165.3
L180.131 163.24
L180.356 163.24
L180.581 165.3
L180.806 163.24
L183.057 163.24
L183.282 165.3
L183.508 163.24
L184.633 163.24
L184.858 165.3
L185.084 163.24
L186.659 163.24
L186.885 35.52
L188.686 35.52
L188.911 33.46
L189.136 35.52
L190.262 35.52
L190.487 33.46
L190.712 35.52
L193.864 35.52
L194.089 33.46
L194.314 35.52
L195.665 35.52
L195.89 33.46
L196.115 35.52
L197.241 35.52
L197.466 33.46
L197.691 35.52
L203.995 35.52
L204.22 33.46
L204.445 35.52
L206.246 35.52
L206.471 33.46
L206.697 35.52
L209.623 35.52
L209.848 161.18
L210.074 163.24
L211.424 163.24
L211.65 165.3
L211.875 163.24
L212.325 163.24
L212.55 165.3
L212.775 163.24
L213.901 163.24
L214.126 165.3
L214.351 163.24
L214.801 163.24
L215.027 165.3
L215.252 163.24
L215.477 165.3
L215.927 165.3
L216.152 163.24
L216.377 165.3
L216.828 165.3
L217.053 163.24
L217.278 165.3
L217.503 163.24
L217.728 165.3
L217.953 163.24
L218.179 165.3
L218.404 163.24
L218.629 165.3
L218.854 163.24
L219.079 163.24
L219.304 165.3
L219.529 163.24
L220.655 163.24
L220.88 165.3
L221.105 163.24
L222.456 163.24
L222.681 165.3
L222.906 163.24
L226.058 163.24
L226.283 165.3
L226.509 163.24
L227.409 163.24
L227.634 165.3
L227.859 163.24
L228.085 163.24
L228.31 165.3
L228.535 163.24
L230.111 163.24
L230.336 165.3
L230.561 163.24
L231.687 163.24
L231.912 165.3
L232.137 163.24
L232.362 163.24
L232.587 165.3
L232.812 37.58
L233.037 35.52
L233.938 35.52
L234.163 33.46
L234.388 35.52
L237.09 35.52
L237.315 33.46
L237.54 35.52
L242.943 35.52
L243.169 33.46
L243.394 35.52
L243.619 33.46
L243.844 35.52
L246.095 35.52
L246.321 33.46
L246.546 35.52
L249.698 35.52
L249.923 37.58
L250.148 35.52
L251.274 35.52
L251.499 33.46
L251.724 35.52
L253.075 35.52
L253.3 37.58
L253.525 35.52
L254.651 35.52
L254.876 33.46
L255.101 35.52
L255.326 33.46
L255.551 35.52
L255.776 35.52
L256.001 161.18
L256.226 163.24
L256.452 163.24
L256.677 165.3
L256.902 163.24
L257.127 165.3
L257.352 163.24
L257.577 165.3
L258.028 165.3
L258.253 163.24
L258.478 163.24
L258.703 165.3
L258.928 163.24
L260.279 163.24
L260.504 165.3
L260.729 165.3
L260.954 163.24
L261.855 163.24
L262.08 165.3
L262.305 163.24
L263.206 163.24
L263.431 165.3
L263.656 163.24
L263.881 163.24
L264.106 165.3
L264.331 165.3
L264.557 163.24
L266.132 163.24
L266.358 165.3
L266.583 163.24
L267.033 163.24
L267.258 165.3
L267.483 163.24
L267.708 163.24
L267.934 165.3
L268.159 163.24
L268.609 163.24
L268.834 165.3
L269.059 163.24
L270.86 163.24
L271.085 165.3
L271.311 163.24
L271.761 163.24
L271.986 165.3
L272.211 163.24
L272.436 165.3
L272.661 163.24
L275.138 163.24
L275.363 165.3
L275.588 163.24
L275.813 165.3
L276.038 163.24
L276.489 163.24
L276.714 165.3
L276.939 163.24
L278.74 163.24
L278.965 37.58
L279.19 35.52
L280.541 35.52
L280.766 33.46
L280.991 35.52
L282.342 35.52
L282.567 33.46
L282.793 33.46
L283.018 35.52
L286.17 35.52
L286.395 33.46
L286.62 35.52
L287.52 35.52
L287.746 33.46
L287.971 35.52
L288.421 35.52
L288.646 33.46
L288.871 35.52
L290.672 35.52
L290.897 37.58
L291.123 35.52
L291.348 35.52
L291.573 33.46
L291.798 35.52
L293.599 35.52
L293.824 33.46
L294.049 35.52
L294.5 35.52
L294.725 33.46
L294.95 35.52
L299.903 35.52
L300.128 33.46
L300.353 35.52
L301.479 35.52
L301.704 33.46
L301.929 33.46
L302.154 163.24
L306.207 163.24
L306.432 165.3
L306.657 163.24
L307.332 163.24
L307.557 165.3
L307.783 163.24
L309.359 163.24
L309.584 165.3
L309.809 163.24
L310.034 165.3
L310.259 163.24
L310.484 163.24
L310.709 165.3
L310.935 165.3
L311.16 163.24
L311.835 163.24
L312.06 165.3
L312.285 163.24
L312.51 163.24
L312.736 165.3
L312.961 163.24
L314.987 163.24
L315.212 165.3
L315.437 163.24
L316.338 163.24
L316.563 165.3
L317.013 165.3
L317.238 163.24
L318.364 163.24
L318.589 165.3
L318.814 163.24
L319.715 163.24
L319.94 165.3
L320.165 163.24
L320.841 163.24
L321.066 165.3
L321.291 163.24
L322.642 163.24
L322.867 165.3
L323.092 163.24
L324.443 163.24
L324.668 165.3
L324.893 163.24
L325.118 35.52
L330.972 35.52
L331.197 33.46
L331.422 35.52
L335.474 35.52
L335.699 33.46
L335.925 35.52
L336.15 33.46
L336.375 35.52
L339.302 35.52
L339.527 33.46
L339.752 33.46
L339.977 35.52
L341.103 35.52
L341.328 37.58
L341.553 35.52
L343.579 35.52
L343.804 33.46
L344.03 35.52
L346.506 35.52
L346.731 37.58
L346.956 35.52
L347.857 35.52
L348.082 161.18
L348.307 163.24
L350.108 163.24
L350.333 165.3
L350.558 163.24
L350.784 165.3
L351.009 163.24
L351.234 163.24
L351.459 165.3
L351.684 163.24
L351.909 163.24
L352.134 165.3
L352.36 163.24
L354.611 163.24
L354.836 165.3
L355.061 163.24
L355.511 163.24
L355.737 165.3
L355.962 163.24
L357.988 163.24
L358.213 165.3
L358.438 163.24
L359.114 163.24
L359.339 165.3
L359.789 165.3
L360.014 163.24
L360.239 165.3
L360.464 163.24
L361.59 163.24
L361.815 165.3
L362.04 163.24
L362.266 165.3
L362.491 163.24
L362.716 165.3
L362.941 163.24
L363.841 163.24
L364.067 165.3
L364.292 163.24
L365.417 163.24
L365.643 165.3
L365.868 163.24
L366.093 165.3
L366.318 163.24
L366.543 163.24
L366.768 165.3
L366.993 163.24
L367.219 165.3
L367.444 163.24
L367.669 163.24
L367.894 165.3
L368.119 163.24
L368.344 163.24
L368.569 165.3
L368.794 163.24
L369.47 163.24
L369.695 165.3
L369.92 163.24
L370.821 163.24
L371.046 165.3
L371.271 35.52
L371.946 35.52
L372.172 37.58
L372.397 35.52
L374.873 35.52
L375.098 33.46
L375.323 35.52
L376.449 35.52
L376.674 37.58
L376.899 35.52
L381.177 35.52
L381.402 33.46
L381.627 35.52
L382.753 35.52
L382.978 37.58
L383.203 35.52
L386.13 35.52
L386.355 33.46
L386.58 35.52
L388.156 35.52
L388.381 37.58
L388.606 35.52
L392.659 35.52
L392.884 33.46
L393.109 35.52
L402.34 35.52
L402.565 37.58
L402.79 35.52
L405.942 35.52
L406.167 37.58
L406.392 35.52
L407.293 35.52
L407.518 37.58
L407.743 35.52
L408.418 35.52
L408.644 33.46
L408.869 35.52
L409.319 35.52
L409.544 37.58
L409.769 35.52
L412.921 35.52
L413.146 37.58
L413.371 35.52
L413.597 35.52
L413.822 33.46
L414.047 35.52
L415.172 35.52
L415.398 37.58
L415.623 35.52
L418.099 35.52
L418.324 37.58
L418.55 35.52
L421.701 35.52
L421.927 37.58
L422.152 37.58
L422.377 35.52
L427.105 35.52
L427.33 37.58
L427.555 37.58
L427.78 35.52
L433.408 35.52
L433.634 37.58
L433.859 35.52
L435.21 35.52
L435.435 33.46
L435.66 35.52
L436.786 35.52
L437.011 37.58
L437.461 33.46
L437.686 35.52
L442.414 35.52
L442.639 37.58
L442.864 35.52
L443.765 35.52
L443.99 33.46
L444.215 35.52
L444.44 33.46
L444.89 37.58
L445.116 35.52
L446.241 35.52
L446.466 33.46
L446.691 35.52
L448.718 35.52
L448.943 37.58
L449.168 35.52
L452.77 35.52
L452.995 37.58
L453.22 35.52
L457.948 35.52
L458.173 37.58
L458.399 35.52
L461.1 35.52
L461.325 33.46
L461.55 35.52
L461.776 35.52
L462.001 33.46
L462.226 35.52
L466.278 35.52
L466.503 33.46
L466.729 35.52
L470.556 35.52
L470.781 37.58
L471.006 35.52
L473.258 35.52
L473.483 33.46
L473.708 35.52
L474.833 35.52
L475.059 33.46
L475.284 35.52
L479.111 35.52
L479.336 37.58
L479.561 35.52
L482.938 35.52
L483.164 33.46
L483.389 35.52
L484.739 35.52
L484.965 161.18
L485.19 163.24
L485.865 163.24
L486.09 165.3
L486.541 165.3
L486.766 163.24
L488.342 163.24
L488.567 165.3
L488.792 163.24
L489.017 165.3
L489.242 163.24
L489.918 163.24
L490.143 165.3
L490.368 165.3
L490.593 163.24
L491.043 163.24
L491.268 165.3
L491.719 165.3
L491.944 163.24
L492.619 163.24
L492.844 165.3
L493.07 163.24
L493.295 163.24
L493.52 165.3
L493.745 163.24
L495.546 163.24
L495.771 165.3
L495.996 163.24
L496.447 163.24
L496.672 165.3
L496.897 165.3
L497.122 163.24
L500.949 163.24
L501.174 165.3
L501.4 163.24
L503.201 163.24
L503.426 165.3
L503.651 165.3
L503.876 163.24
L504.101 165.3
L504.326 163.24
L505.677 163.24
L505.902 165.3
L506.127 163.24
L507.478 163.24
L507.703 165.3
L507.928 163.24
L510.855 163.24
L511.08 165.3
L511.306 165.3
L511.531 163.24
L511.756 165.3
L511.981 163.24
L513.107 163.24
L513.332 165.3
L514.007 165.3
L514.232 163.24
L515.583 163.24
L515.808 165.3
L516.033 163.24
L517.384 163.24
L517.609 165.3
L517.834 163.24
L518.51 163.24
L518.735 165.3
L518.96 163.24
L521.662 163.24
L521.887 165.3
L522.112 165.3
L522.337 163.24
L524.814 163.24
L525.039 165.3
L525.264 163.24
L525.714 163.24
L525.939 165.3
L526.164 165.3
L526.39 163.24
L528.191 163.24
L528.416 165.3
L528.641 165.3
L528.866 163.24
L530.667 163.24
L530.892 165.3
L531.117 163.24
L533.369 163.24
L533.594 165.3
L533.819 165.3
L534.044 163.24
L534.269 163.24
L534.495 165.3
L534.72 165.3
L534.945 163.24
L536.521 163.24
L536.746 165.3
L537.196 165.3
L537.421 163.24
L538.772 163.24
L538.997 165.3
L539.222 163.24
L540.348 163.24
L540.573 165.3
L540.798 163.24
L541.249 163.24
L541.474 165.3
L541.699 163.24
L542.149 163.24
L542.374 165.3
L542.599 163.24
L542.825 165.3
L543.05 163.24
L543.275 163.24
L543.5 165.3
L543.725 163.24
L543.95 163.24
L544.175 165.3
L544.626 165.3
L544.851 163.24
L546.202 163.24
L546.427 165.3
L546.652 163.24
L547.552 163.24
L547.778 165.3
L548.003 163.24
L548.228 163.24
L548.453 165.3
L548.678 163.24
L548.903 163.24
L549.128 165.3
L549.353 163.24
L550.704 163.24
L550.929 165.3
L551.155 165.3
L551.38 163.24
L551.605 163.24
L551.83 165.3
L552.505 165.3
L552.731 163.24
L552.956 163.24
L553.181 165.3
L553.406 163.24
L553.631 163.24
L553.856 165.3
L554.081 163.24
L555.882 163.24
L556.108 165.3
L556.333 165.3
L556.558 163.24
L556.783 165.3
L557.458 165.3
L557.684 163.24
L558.584 163.24
L558.809 165.3
L559.034 163.24
L561.961 163.24
L562.186 165.3
L562.411 163.24
L563.987 163.24
L564.212 165.3
L564.438 163.24
L564.663 163.24
L564.888 165.3
L565.113 163.24
L567.139 163.24
L567.364 165.3
L567.589 163.24
L570.741 163.24
L570.967 161.18
L571.192 163.24
L571.642 163.24
L571.867 165.3
L572.317 165.3
L572.542 163.24
L572.768 163.24
L572.993 165.3
L573.218 163.24
L573.668 163.24
L573.893 165.3
L574.118 163.24
L574.569 163.24
L574.794 165.3
L575.019 163.24
L575.469 163.24
L575.694 165.3
L575.92 163.24
L577.045 163.24
L577.27 165.3
L577.495 163.24
L577.721 165.3
L577.946 163.24
L579.522 163.24
L579.747 165.3
L579.972 165.3
L580.197 163.24
L580.422 163.24
L580.647 165.3
L581.098 165.3
L581.323 163.24
L582.899 163.24
L583.124 165.3
L583.349 163.24
L583.574 163.24
L583.799 165.3
L584.024 163.24
L584.25 163.24
L584.475 165.3
L584.7 163.24
L585.826 163.24
L586.051 165.3
L586.276 165.3
L586.501 163.24
L586.726 163.24
L586.951 165.3
L587.176 163.24
L587.852 163.24
L588.077 165.3
L588.302 163.24
L589.653 163.24
L589.878 165.3
L590.103 163.24
L590.328 165.3
L590.553 163.24
L590.778 165.3
L591.004 163.24
L592.805 163.24
L593.03 165.3
L593.255 163.24
L593.48 165.3
L593.705 163.24
L595.056 163.24
L595.281 165.3
L595.506 165.3
L595.731 163.24
L595.957 163.24
L596.182 165.3
L596.857 165.3
L597.082 163.24
L598.658 163.24
L598.883 35.52
L600.459 35.52
L600.684 33.46
L600.91 35.52
L603.161 35.52
L603.386 37.58
L603.611 35.52
L603.836 35.52
L604.062 37.58
L604.287 35.52
L606.088 35.52
L606.313 33.46
L606.538 35.52
L608.114 35.52
L608.339 33.46
L608.564 35.52
L609.015 35.52
L609.24 33.46
L609.465 35.52
L614.418 35.52
L614.643 33.46
L614.868 35.52
L616.219 35.52
L616.444 33.46
L616.669 35.52
L618.02 35.52
L618.245 37.58
L618.47 37.58
L618.695 35.52
L620.046 35.52
L620.271 33.46
L620.496 37.58
L620.722 35.52
L621.172 35.52
L621.397 37.58
L621.622 35.52
L621.847 35.52
L622.072 33.46
L622.298 35.52
L623.873 35.52
L624.099 37.58
L624.324 37.58
L624.549 35.52
L625.675 35.52
L625.9 37.58
L626.125 35.52
L628.376 35.52
L628.601 37.58
L628.826 35.52
L629.952 35.52
L630.177 37.58
L630.402 35.52
L633.779 35.52
L634.005 37.58
L634.23 35.52
L637.382 35.52
L637.607 37.58
L637.832 35.52
L645.036 35.52
L645.261 33.46
L645.487 35.52
L649.314 35.52
L649.539 37.58
L649.764 35.52
L652.466 35.52
L652.691 37.58
L652.691 37.58" style="fill:none;stroke:#0000ff;stroke-linecap:square;stroke-width:2;"/>
   </g>
   <g id="matplotlib.axis_1">
    <g id="xtick_1">
     <g id="line2d_2">
      <defs>
       <path d="
M0 0
L0 -4" id="m93b0483c22" style="stroke:#000000;stroke-width:0.5;"/>
      </defs>
      <g>
       <use style="stroke:#000000;stroke-width:0.5;" x="33.7921875" xlink:href="#m93b0483c22" y="165.3"/>
      </g>
     </g>
     <g id="line2d_3">
      <defs>
       <path d="
M0 0
L0 4" id="m741efc42ff" style="stroke:#000000;stroke-width:0.5;"/>
      </defs>
      <g>
       <use style="stroke:#000000;stroke-width:0.5;" x="33.7921875" xlink:href="#m741efc42ff" y="10.8"/>
      </g>
     </g>
    </g>
    <g id="xtick_2">
     <g id="line2d_4">
      <g>
       <use style="stroke:#000000;stroke-width:0.5;" x="146.36015625" xlink:href="#m93b0483c22" y="165.3"/>
      </g>
     </g>
     <g id="line2d_5">
      <g>
       <use style="stroke:#000000;stroke-width:0.5;" x="146.36015625" xlink:href="#m741efc42ff" y="10.8"/>
      </g>
     </g>
    </g>
    <g id="xtick_3">
     <g id="line2d_6">
      <g>
       <use style="stroke:#000000;stroke-width:0.5;" x="258.928125" xlink:href="#m93b0483c22" y="165.3"/>
      </g>
     </g>
     <g id="line2d_7">
      <g>
       <use style="stroke:#000000;stroke-width:0.5;" x="258.928125" xlink:href="#m741efc42ff" y="10.8"/>
      </g>
     </g>
    </g>
    <g id="xtick_4">
     <g id="line2d_8">
      <g>
       <use style="stroke:#000000;stroke-width:0.5;" x="371.49609375" xlink:href="#m93b0483c22" y="165.3"/>
      </g>
     </g>
     <g id="line2d_9">
      <g>
       <use style="stroke:#000000;stroke-width:0.5;" x="371.49609375" xlink:href="#m741efc42ff" y="10.8"/>
      </g>
     </g>
    </g>
    <g id="xtick_5">
     <g id="line2d_10">
      <g>
       <use style="stroke:#000000;stroke-width:0.5;" x="484.0640625" xlink:href="#m93b0483c22" y="165.3"/>
      </g>
     </g>
     <g id="line2d_11">
      <g>
       <use style="stroke:#000000;stroke-width:0.5;" x="484.0640625" xlink:href="#m741efc42ff" y="10.8"/>
      </g>
     </g>
    </g>
    <g id="xtick_6">
     <g id="line2d_12">
      <g>
       <use style="stroke:#000000;stroke-width:0.5;" x="596.63203125" xlink:href="#m93b0483c22" y="165.3"/>
      </g>
     </g>
     <g id="line2d_13">
      <g>
       <use style="stroke:#000000;stroke-width:0.5;" x="596.63203125" xlink:href="#m741efc42ff" y="10.8"/>
      </g>
     </g>
    </g>
    <g id="xtick_7">
     <g id="line2d_14">
      <g>
       <use style="stroke:#000000;stroke-width:0.5;" x="709.2" xlink:href="#m93b0483c22" y="165.3"/>
      </g>
     </g>
     <g id="line2d_15">
      <g>
       <use style="stroke:#000000;stroke-width:0.5;" x="709.2" xlink:href="#m741efc42ff" y="10.8"/>
      </g>
     </g>
    </g>
   </g>
   <g id="matplotlib.axis_2">
    <g id="ytick_1">
     <g id="line2d_16">
      <defs>
       <path d="
M0 0
L4 0" id="m728421d6d4" style="stroke:#000000;stroke-width:0.5;"/>
      </defs>
      <g>
       <use style="stroke:#000000;stroke-width:0.5;" x="33.7921875" xlink:href="#m728421d6d4" y="165.3"/>
      </g>
     </g>
     <g id="line2d_17">
      <defs>
       <path d="
M0 0
L-4 0" id="mcb0005524f" style="stroke:#000000;stroke-width:0.5;"/>
      </defs>
      <g>
       <use style="stroke:#000000;stroke-width:0.5;" x="709.2" xlink:href="#mcb0005524f" y="165.3"/>
      </g>
     </g>
     <g id="text_1">
      <!-- 0 -->
      <defs>
       <path d="
M31.7812 66.4062
Q24.1719 66.4062 20.3281 58.9062
Q16.5 51.4219 16.5 36.375
Q16.5 21.3906 20.3281 13.8906
Q24.1719 6.39062 31.7812 6.39062
Q39.4531 6.39062 43.2812 13.8906
Q47.125 21.3906 47.125 36.375
Q47.125 51.4219 43.2812 58.9062
Q39.4531 66.4062 31.7812 66.4062
M31.7812 74.2188
Q44.0469 74.2188 50.5156 64.5156
Q56.9844 54.8281 56.9844 36.375
Q56.9844 17.9688 50.5156 8.26562
Q44.0469 -1.42188 31.7812 -1.42188
Q19.5312 -1.42188 13.0625 8.26562
Q6.59375 17.9688 6.59375 36.375
Q6.59375 54.8281 13.0625 64.5156
Q19.5312 74.2188 31.7812 74.2188" id="DejaVuSans-30"/>
      </defs>
      <g transform="translate(24.753125 168.059375)scale(0.1 -0.1)">
       <use xlink:href="#DejaVuSans-30"/>
      </g>
     </g>
    </g>
    <g id="ytick_2">
     <g id="line2d_18">
      <g>
       <use style="stroke:#000000;stroke-width:0.5;" x="33.7921875" xlink:href="#m728421d6d4" y="36.55"/>
      </g>
     </g>
     <g id="line2d_19">
      <g>
       <use style="stroke:#000000;stroke-width:0.5;" x="709.2" xlink:href="#mcb0005524f" y="36.55"/>
      </g>
     </g>
     <g id="text_2">
      <!-- 5 -->
      <defs>
       <path d="
M10.7969 72.9062
L49.5156 72.9062
L49.5156 64.5938
L19.8281 64.5938
L19.8281 46.7344
Q21.9688 47.4688 24.1094 47.8281
Q26.2656 48.1875 28.4219 48.1875
Q40.625 48.1875 47.75 41.5
Q54.8906 34.8125 54.8906 23.3906
Q54.8906 11.625 47.5625 5.09375
Q40.2344 -1.42188 26.9062 -1.42188
Q22.3125 -1.42188 17.5469 -0.640625
Q12.7969 0.140625 7.71875 1.70312
L7.71875 11.625
Q12.1094 9.23438 16.7969 8.0625
Q21.4844 6.89062 26.7031 6.89062
Q35.1562 6.89062 40.0781 11.3281
Q45.0156 15.7656 45.0156 23.3906
Q45.0156 31 40.0781 35.4375
Q35.1562 39.8906 26.7031 39.8906
Q22.75 39.8906 18.8125 39.0156
Q14.8906 38.1406 10.7969 36.2812
z
" id="DejaVuSans-35"/>
      </defs>
      <g transform="translate(25.075 39.309375)scale(0.1 -0.1)">
       <use xlink:href="#DejaVuSans-35"/>
      </g>
     </g>
    </g>
    <g id="text_3">
     <!-- U in Volt -->
     <defs>
      <path d="
M30.6094 48.3906
Q23.3906 48.3906 19.1875 42.75
Q14.9844 37.1094 14.9844 27.2969
Q14.9844 17.4844 19.1562 11.8438
Q23.3438 6.20312 30.6094 6.20312
Q37.7969 6.20312 41.9844 11.8594
Q46.1875 17.5312 46.1875 27.2969
Q46.1875 37.0156 41.9844 42.7031
Q37.7969 48.3906 30.6094 48.3906
M30.6094 56
Q42.3281 56 49.0156 48.375
Q55.7188 40.7656 55.7188 27.2969
Q55.7188 13.875 49.0156 6.21875
Q42.3281 -1.42188 30.6094 -1.42188
Q18.8438 -1.42188 12.1719 6.21875
Q5.51562 13.875 5.51562 27.2969
Q5.51562 40.7656 12.1719 48.375
Q18.8438 56 30.6094 56" id="DejaVuSans-6f"/>
      <path d="
M54.8906 33.0156
L54.8906 0
L45.9062 0
L45.9062 32.7188
Q45.9062 40.4844 42.875 44.3281
Q39.8438 48.1875 33.7969 48.1875
Q26.5156 48.1875 22.3125 43.5469
Q18.1094 38.9219 18.1094 30.9062
L18.1094 0
L9.07812 0
L9.07812 54.6875
L18.1094 54.6875
L18.1094 46.1875
Q21.3438 51.125 25.7031 53.5625
Q30.0781 56 35.7969 56
Q45.2188 56 50.0469 50.1719
Q54.8906 44.3438 54.8906 33.0156" id="DejaVuSans-6e"/>
      <path d="
M9.42188 75.9844
L18.4062 75.9844
L18.4062 0
L9.42188 0
z
" id="DejaVuSans-6c"/>
      <path id="DejaVuSans-20"/>
      <path d="
M9.42188 54.6875
L18.4062 54.6875
L18.4062 0
L9.42188 0
z

M9.42188 75.9844
L18.4062 75.9844
L18.4062 64.5938
L9.42188 64.5938
z
" id="DejaVuSans-69"/>
      <path d="
M18.3125 70.2188
L18.3125 54.6875
L36.8125 54.6875
L36.8125 47.7031
L18.3125 47.7031
L18.3125 18.0156
Q18.3125 11.3281 20.1406 9.42188
Q21.9688 7.51562 27.5938 7.51562
L36.8125 7.51562
L36.8125 0
L27.5938 0
Q17.1875 0 13.2344 3.875
Q9.28125 7.76562 9.28125 18.0156
L9.28125 47.7031
L2.6875 47.7031
L2.6875 54.6875
L9.28125 54.6875
L9.28125 70.2188
z
" id="DejaVuSans-74"/>
      <path d="
M28.6094 0
L0.78125 72.9062
L11.0781 72.9062
L34.1875 11.5312
L57.3281 72.9062
L67.5781 72.9062
L39.7969 0
z
" id="DejaVuSans-56"/>
      <path d="
M8.6875 72.9062
L18.6094 72.9062
L18.6094 28.6094
Q18.6094 16.8906 22.8438 11.7344
Q27.0938 6.59375 36.625 6.59375
Q46.0938 6.59375 50.3438 11.7344
Q54.5938 16.8906 54.5938 28.6094
L54.5938 72.9062
L64.5 72.9062
L64.5 27.3906
Q64.5 13.1406 57.4375 5.85938
Q50.3906 -1.42188 36.625 -1.42188
Q22.7969 -1.42188 15.7344 5.85938
Q8.6875 13.1406 8.6875 27.3906
z
" id="DejaVuSans-55"/>
     </defs>
     <g transform="translate(17.6734375 108.7671875)rotate(-90.0)scale(0.1 -0.1)">
      <use xlink:href="#DejaVuSans-55"/>
      <use x="73.193359375" xlink:href="#DejaVuSans-20"/>
      <use x="104.98046875" xlink:href="#DejaVuSans-69"/>
      <use x="132.763671875" xlink:href="#DejaVuSans-6e"/>
      <use x="196.142578125" xlink:href="#DejaVuSans-20"/>
      <use x="227.9296875" xlink:href="#DejaVuSans-56"/>
      <use x="288.587890625" xlink:href="#DejaVuSans-6f"/>
      <use x="349.76953125" xlink:href="#DejaVuSans-6c"/>
      <use x="377.552734375" xlink:href="#DejaVuSans-74"/>
     </g>
    </g>
   </g>
   <g id="patch_3">
    <path d="
M33.7922 10.8
L709.2 10.8" style="fill:none;stroke:#000000;"/>
   </g>
   <g id="patch_4">
    <path d="
M709.2 165.3
L709.2 10.8" style="fill:none;stroke:#000000;"/>
   </g>
   <g id="patch_5">
    <path d="
M33.7922 165.3
L709.2 165.3" style="fill:none;stroke:#000000;"/>
   </g>
   <g id="patch_6">
    <path d="
M33.7922 165.3
L33.7922 10.8" style="fill:none;stroke:#000000;"/>
   </g>
   <g id="legend_1">
    <g id="patch_7">
     <path d="
M625.054 159.3
L703.2 159.3
L703.2 138.086
L625.054 138.086
L625.054 159.3
z
" style="fill:#ffffff;stroke:#000000;"/>
    </g>
    <g id="line2d_20">
     <path d="
M633.454 147.804
L650.254 147.804" style="fill:none;stroke:#0000ff;stroke-linecap:square;stroke-width:2;"/>
    </g>
    <g id="line2d_21"/>
    <g id="text_4">
     <!-- Signal -->
     <defs>
      <path d="
M53.5156 70.5156
L53.5156 60.8906
Q47.9062 63.5781 42.9219 64.8906
Q37.9375 66.2188 33.2969 66.2188
Q25.25 66.2188 20.875 63.0938
Q16.5 59.9688 16.5 54.2031
Q16.5 49.3594 19.4062 46.8906
Q22.3125 44.4375 30.4219 42.9219
L36.375 41.7031
Q47.4062 39.5938 52.6562 34.2969
Q57.9062 29 57.9062 20.125
Q57.9062 9.51562 50.7969 4.04688
Q43.7031 -1.42188 29.9844 -1.42188
Q24.8125 -1.42188 18.9688 -0.25
Q13.1406 0.921875 6.89062 3.21875
L6.89062 13.375
Q12.8906 10.0156 18.6562 8.29688
Q24.4219 6.59375 29.9844 6.59375
Q38.4219 6.59375 43.0156 9.90625
Q47.6094 13.2344 47.6094 19.3906
Q47.6094 24.75 44.3125 27.7812
Q41.0156 30.8125 33.5 32.3281
L27.4844 33.5
Q16.4531 35.6875 11.5156 40.375
Q6.59375 45.0625 6.59375 53.4219
Q6.59375 63.0938 13.4062 68.6562
Q20.2188 74.2188 32.1719 74.2188
Q37.3125 74.2188 42.625 73.2812
Q47.9531 72.3594 53.5156 70.5156" id="DejaVuSans-53"/>
      <path d="
M45.4062 27.9844
Q45.4062 37.75 41.375 43.1094
Q37.3594 48.4844 30.0781 48.4844
Q22.8594 48.4844 18.8281 43.1094
Q14.7969 37.75 14.7969 27.9844
Q14.7969 18.2656 18.8281 12.8906
Q22.8594 7.51562 30.0781 7.51562
Q37.3594 7.51562 41.375 12.8906
Q45.4062 18.2656 45.4062 27.9844
M54.3906 6.78125
Q54.3906 -7.17188 48.1875 -13.9844
Q42 -20.7969 29.2031 -20.7969
Q24.4688 -20.7969 20.2656 -20.0938
Q16.0625 -19.3906 12.1094 -17.9219
L12.1094 -9.1875
Q16.0625 -11.3281 19.9219 -12.3438
Q23.7812 -13.375 27.7812 -13.375
Q36.625 -13.375 41.0156 -8.76562
Q45.4062 -4.15625 45.4062 5.17188
L45.4062 9.625
Q42.625 4.78125 38.2812 2.39062
Q33.9375 0 27.875 0
Q17.8281 0 11.6719 7.65625
Q5.51562 15.3281 5.51562 27.9844
Q5.51562 40.6719 11.6719 48.3281
Q17.8281 56 27.875 56
Q33.9375 56 38.2812 53.6094
Q42.625 51.2188 45.4062 46.3906
L45.4062 54.6875
L54.3906 54.6875
z
" id="DejaVuSans-67"/>
      <path d="
M34.2812 27.4844
Q23.3906 27.4844 19.1875 25
Q14.9844 22.5156 14.9844 16.5
Q14.9844 11.7188 18.1406 8.90625
Q21.2969 6.10938 26.7031 6.10938
Q34.1875 6.10938 38.7031 11.4062
Q43.2188 16.7031 43.2188 25.4844
L43.2188 27.4844
z

M52.2031 31.2031
L52.2031 0
L43.2188 0
L43.2188 8.29688
Q40.1406 3.32812 35.5469 0.953125
Q30.9531 -1.42188 24.3125 -1.42188
Q15.9219 -1.42188 10.9531 3.29688
Q6 8.01562 6 15.9219
Q6 25.1406 12.1719 29.8281
Q18.3594 34.5156 30.6094 34.5156
L43.2188 34.5156
L43.2188 35.4062
Q43.2188 41.6094 39.1406 45
Q35.0625 48.3906 27.6875 48.3906
Q23 48.3906 18.5469 47.2656
Q14.1094 46.1406 10.0156 43.8906
L10.0156 52.2031
Q14.9375 54.1094 19.5781 55.0469
Q24.2188 56 28.6094 56
Q40.4844 56 46.3438 49.8438
Q52.2031 43.7031 52.2031 31.2031" id="DejaVuSans-61"/>
     </defs>
     <g transform="translate(663.45375 152.004375)scale(0.12 -0.12)">
      <use xlink:href="#DejaVuSans-53"/>
      <use x="63.4765625" xlink:href="#DejaVuSans-69"/>
      <use x="91.259765625" xlink:href="#DejaVuSans-67"/>
      <use x="154.736328125" xlink:href="#DejaVuSans-6e"/>
      <use x="218.115234375" xlink:href="#DejaVuSans-61"/>
      <use x="279.39453125" xlink:href="#DejaVuSans-6c"/>
     </g>
    </g>
   </g>
  </g>
  <g id="axes_2">
   <g id="patch_8">
    <path d="
M33.7922 250.2
L709.2 250.2
L709.2 180.6
L33.7922 180.6
z
" style="fill:#ffffff;"/>
   </g>
   <g id="line2d_22">
    <path clip-path="url(#p56a0c14018)" d="
M90.0762 247.88
L188.911 247.88
L189.136 245.56
L189.361 247.88
L208.948 247.88
L209.173 245.56
L209.398 247.88
L218.179 247.88
L218.404 250.2
L218.629 247.88
L234.163 247.88
L234.388 245.56
L234.613 247.88
L263.431 247.88
L263.656 250.2
L263.881 247.88
L315.437 247.88
L315.662 250.2
L315.888 247.88
L371.271 247.88
L371.496 189.88
L374.423 189.88
L374.648 192.2
L374.873 189.88
L375.098 189.88
L375.323 192.2
L375.549 189.88
L375.774 192.2
L375.999 189.88
L377.575 189.88
L377.8 192.2
L378.025 189.88
L378.25 192.2
L378.475 189.88
L380.952 189.88
L381.177 192.2
L381.402 189.88
L381.627 189.88
L381.852 192.2
L382.077 189.88
L382.978 189.88
L383.203 192.2
L383.428 192.2
L383.653 189.88
L383.879 192.2
L384.104 189.88
L384.779 189.88
L385.004 192.2
L385.229 192.2
L385.455 189.88
L387.03 189.88
L387.256 192.2
L387.481 189.88
L391.308 189.88
L391.533 192.2
L391.758 189.88
L391.983 189.88
L392.209 192.2
L392.434 189.88
L392.659 192.2
L392.884 189.88
L393.334 189.88
L393.559 192.2
L393.785 189.88
L395.811 189.88
L396.036 192.2
L396.261 189.88
L396.486 189.88
L396.711 192.2
L396.936 192.2
L397.162 189.88
L397.387 189.88
L397.612 192.2
L397.837 192.2
L398.062 189.88
L400.989 189.88
L401.214 192.2
L401.439 189.88
L402.565 189.88
L402.79 192.2
L403.015 189.88
L404.816 189.88
L405.041 192.2
L405.266 189.88
L410.445 189.88
L410.67 192.2
L410.895 189.88
L412.696 189.88
L412.921 192.2
L413.146 189.88
L413.822 189.88
L414.047 192.2
L414.272 189.88
L416.298 189.88
L416.523 192.2
L416.748 192.2
L416.974 189.88
L418.55 189.88
L418.775 192.2
L419 189.88
L419.225 192.2
L419.45 189.88
L422.152 189.88
L422.377 192.2
L422.602 189.88
L422.827 192.2
L423.052 189.88
L423.953 189.88
L424.178 192.2
L424.403 189.88
L426.654 189.88
L426.88 192.2
L427.105 189.88
L427.33 192.2
L427.555 189.88
L427.78 189.88
L428.005 192.2
L428.23 192.2
L428.455 189.88
L429.131 189.88
L429.356 192.2
L429.581 189.88
L432.733 189.88
L432.958 192.2
L433.183 189.88
L434.309 189.88
L434.534 192.2
L434.759 192.2
L434.984 189.88
L436.11 189.88
L436.335 192.2
L436.56 189.88
L437.686 189.88
L437.911 192.2
L438.136 189.88
L438.587 189.88
L438.812 192.2
L439.037 189.88
L440.613 189.88
L440.838 192.2
L441.063 189.88
L441.739 189.88
L441.964 192.2
L442.189 189.88
L443.54 189.88
L443.765 192.2
L443.99 189.88
L444.215 192.2
L444.44 192.2
L444.665 189.88
L446.016 189.88
L446.241 192.2
L446.466 189.88
L446.917 189.88
L447.142 192.2
L447.367 189.88
L447.817 189.88
L448.042 192.2
L448.267 189.88
L449.168 189.88
L449.393 192.2
L449.618 189.88
L449.843 189.88
L450.069 192.2
L450.294 189.88
L450.744 189.88
L450.969 192.2
L451.194 192.2
L451.419 189.88
L451.644 192.2
L451.87 192.2
L452.095 189.88
L453.22 189.88
L453.446 192.2
L453.671 192.2
L453.896 189.88
L454.121 189.88
L454.346 192.2
L454.571 189.88
L461.55 189.88
L461.776 192.2
L462.001 189.88
L464.928 189.88
L465.153 192.2
L465.378 189.88
L465.603 189.88
L465.828 192.2
L466.053 189.88
L470.556 189.88
L470.781 192.2
L471.006 189.88
L471.231 189.88
L471.456 192.2
L471.682 189.88
L472.582 189.88
L472.807 192.2
L473.032 189.88
L475.509 189.88
L475.734 192.2
L475.959 189.88
L476.409 189.88
L476.635 192.2
L476.86 189.88
L478.886 189.88
L479.111 192.2
L479.336 189.88
L479.786 189.88
L480.012 192.2
L480.237 189.88
L481.362 189.88
L481.588 192.2
L481.813 192.2
L482.038 189.88
L483.164 189.88
L483.389 192.2
L483.614 192.2
L483.839 189.88
L486.766 189.88
L486.991 192.2
L487.216 189.88
L488.117 189.88
L488.342 192.2
L488.567 192.2
L488.792 189.88
L489.017 192.2
L489.242 189.88
L489.467 189.88
L489.692 192.2
L489.918 189.88
L490.368 189.88
L490.593 192.2
L490.818 189.88
L491.268 189.88
L491.494 192.2
L491.719 189.88
L492.394 189.88
L492.619 192.2
L492.844 192.2
L493.07 189.88
L493.52 189.88
L493.745 192.2
L493.97 192.2
L494.195 189.88
L494.42 192.2
L494.645 189.88
L494.871 192.2
L495.096 192.2
L495.321 189.88
L495.546 189.88
L495.771 192.2
L495.996 189.88
L496.221 189.88
L496.447 192.2
L496.672 189.88
L497.122 189.88
L497.347 192.2
L497.572 189.88
L499.373 189.88
L499.598 192.2
L499.824 192.2
L500.049 189.88
L500.274 192.2
L500.499 189.88
L500.949 189.88
L501.174 192.2
L501.4 189.88
L501.625 192.2
L501.85 189.88
L502.075 189.88
L502.3 192.2
L502.525 189.88
L503.426 189.88
L503.651 192.2
L503.876 189.88
L504.326 189.88
L504.551 192.2
L504.777 189.88
L505.002 189.88
L505.227 192.2
L505.677 192.2
L505.902 189.88
L506.578 189.88
L506.803 192.2
L507.028 189.88
L507.253 189.88
L507.478 192.2
L507.703 189.88
L507.928 192.2
L508.154 189.88
L508.379 189.88
L508.604 192.2
L509.054 192.2
L509.279 189.88
L510.63 189.88
L510.855 192.2
L511.08 189.88
L511.531 189.88
L511.756 192.2
L511.981 189.88
L512.881 189.88
L513.107 192.2
L513.332 189.88
L514.007 189.88
L514.232 192.2
L514.457 189.88
L514.683 192.2
L514.908 189.88
L515.133 192.2
L515.358 192.2
L515.583 189.88
L516.484 189.88
L516.709 192.2
L516.934 192.2
L517.159 189.88
L517.609 189.88
L517.834 192.2
L518.06 189.88
L518.735 189.88
L518.96 192.2
L519.185 189.88
L519.861 189.88
L520.086 192.2
L520.311 189.88
L520.986 189.88
L521.211 192.2
L521.437 189.88
L521.662 192.2
L521.887 189.88
L523.463 189.88
L523.688 192.2
L523.913 192.2
L524.138 189.88
L525.264 189.88
L525.489 192.2
L525.714 189.88
L526.84 189.88
L527.065 192.2
L527.29 192.2
L527.515 189.88
L528.416 189.88
L528.641 192.2
L528.866 189.88
L529.316 189.88
L529.542 192.2
L529.767 189.88
L530.667 189.88
L530.892 192.2
L531.117 189.88
L532.018 189.88
L532.243 192.2
L532.468 192.2
L532.693 189.88
L534.044 189.88
L534.269 192.2
L534.495 192.2
L534.72 189.88
L534.945 192.2
L535.17 192.2
L535.395 189.88
L537.196 189.88
L537.421 192.2
L537.646 189.88
L538.322 189.88
L538.547 192.2
L538.772 189.88
L538.997 192.2
L539.222 189.88
L540.123 189.88
L540.348 192.2
L540.573 189.88
L541.023 189.88
L541.249 192.2
L541.474 189.88
L541.699 189.88
L541.924 192.2
L542.149 189.88
L542.374 192.2
L542.599 189.88
L544.626 189.88
L544.851 192.2
L545.076 189.88
L546.427 189.88
L546.652 192.2
L546.877 189.88
L547.327 189.88
L547.552 192.2
L547.778 189.88
L548.228 189.88
L548.453 192.2
L548.678 189.88
L550.254 189.88
L550.479 192.2
L550.704 189.88
L551.38 189.88
L551.605 192.2
L551.83 189.88
L552.956 189.88
L553.181 192.2
L553.406 189.88
L553.631 189.88
L553.856 192.2
L554.306 192.2
L554.532 189.88
L558.584 189.88
L558.809 192.2
L559.034 192.2
L559.259 189.88
L563.087 189.88
L563.312 192.2
L563.537 189.88
L564.438 189.88
L564.663 192.2
L564.888 192.2
L565.113 189.88
L565.788 189.88
L566.014 192.2
L566.239 192.2
L566.464 189.88
L569.165 189.88
L569.391 192.2
L569.616 189.88
L569.841 189.88
L570.066 192.2
L570.291 189.88
L570.741 189.88
L570.967 192.2
L571.192 189.88
L571.642 189.88
L571.867 192.2
L572.317 192.2
L572.542 189.88
L573.443 189.88
L573.668 192.2
L573.893 189.88
L576.145 189.88
L576.37 192.2
L576.595 189.88
L576.82 192.2
L577.045 189.88
L577.27 189.88
L577.495 192.2
L577.721 189.88
L578.171 189.88
L578.396 192.2
L578.621 189.88
L579.071 189.88
L579.297 192.2
L579.522 189.88
L579.972 189.88
L580.197 192.2
L580.422 192.2
L580.647 189.88
L581.323 189.88
L581.548 192.2
L581.773 189.88
L581.998 192.2
L582.223 192.2
L582.448 189.88
L582.899 189.88
L583.124 192.2
L583.349 189.88
L583.574 192.2
L583.799 189.88
L584.024 192.2
L584.25 189.88
L587.401 189.88
L587.627 192.2
L587.852 189.88
L588.527 189.88
L588.752 192.2
L588.977 192.2
L589.203 189.88
L590.103 189.88
L590.328 192.2
L590.553 189.88
L590.778 189.88
L591.004 192.2
L591.454 192.2
L591.679 189.88
L594.606 189.88
L594.831 192.2
L595.056 189.88
L599.109 189.88
L599.334 192.2
L599.559 189.88
L599.784 189.88
L600.009 192.2
L600.234 192.2
L600.459 189.88
L600.91 189.88
L601.135 192.2
L601.36 189.88
L601.585 192.2
L601.81 189.88
L602.26 189.88
L602.486 192.2
L602.711 189.88
L602.936 189.88
L603.161 192.2
L603.386 192.2
L603.611 189.88
L603.836 189.88
L604.062 192.2
L604.287 192.2
L604.512 189.88
L608.114 189.88
L608.339 192.2
L608.564 192.2
L608.789 189.88
L610.59 189.88
L610.816 192.2
L611.041 189.88
L611.716 189.88
L611.941 192.2
L612.166 189.88
L612.617 189.88
L612.842 192.2
L613.067 189.88
L615.543 189.88
L615.769 192.2
L615.994 189.88
L616.219 189.88
L616.444 192.2
L616.669 189.88
L616.894 189.88
L617.119 192.2
L617.345 192.2
L617.57 189.88
L619.821 189.88
L620.046 192.2
L620.271 189.88
L621.172 189.88
L621.397 192.2
L621.622 192.2
L621.847 189.88
L622.072 189.88
L622.298 192.2
L622.523 192.2
L622.748 189.88
L622.973 189.88
L623.198 192.2
L623.423 189.88
L623.873 189.88
L624.099 192.2
L624.324 189.88
L626.125 189.88
L626.35 192.2
L626.575 189.88
L626.8 189.88
L627.025 192.2
L627.251 189.88
L627.701 189.88
L627.926 192.2
L628.151 189.88
L632.429 189.88
L632.654 192.2
L632.879 189.88
L633.104 192.2
L633.329 189.88
L636.256 189.88
L636.481 192.2
L636.706 189.88
L638.732 189.88
L638.958 192.2
L639.183 189.88
L640.984 189.88
L641.209 192.2
L641.434 189.88
L645.487 189.88
L645.712 192.2
L645.937 189.88
L647.288 189.88
L647.513 192.2
L647.738 189.88
L649.539 189.88
L649.764 192.2
L649.989 192.2
L650.214 189.88
L652.015 189.88
L652.241 192.2
L652.466 189.88
L652.691 192.2
L652.691 192.2" style="fill:none;stroke:#008000;stroke-linecap:square;stroke-width:2;"/>
   </g>
   <g id="matplotlib.axis_3">
    <g id="xtick_8">
     <g id="line2d_23">
      <g>
       <use style="stroke:#000000;stroke-width:0.5;" x="146.36015625" xlink:href="#m93b0483c22" y="250.2"/>
      </g>
     </g>
     <g id="line2d_24">
      <g>
       <use style="stroke:#000000;stroke-width:0.5;" x="146.36015625" xlink:href="#m741efc42ff" y="180.6"/>
      </g>
     </g>
     <g id="text_5">
      <!-- −0.01 -->
      <defs>
       <path d="
M12.4062 8.29688
L28.5156 8.29688
L28.5156 63.9219
L10.9844 60.4062
L10.9844 69.3906
L28.4219 72.9062
L38.2812 72.9062
L38.2812 8.29688
L54.3906 8.29688
L54.3906 0
L12.4062 0
z
" id="DejaVuSans-31"/>
       <path d="
M10.6875 12.4062
L21 12.4062
L21 0
L10.6875 0
z
" id="DejaVuSans-2e"/>
       <path d="
M10.5938 35.5
L73.1875 35.5
L73.1875 27.2031
L10.5938 27.2031
z
" id="DejaVuSans-2212"/>
      </defs>
      <g transform="translate(132.02890625 261.7984375)scale(0.1 -0.1)">
       <use xlink:href="#DejaVuSans-2212"/>
       <use x="83.7890625" xlink:href="#DejaVuSans-30"/>
       <use x="147.412109375" xlink:href="#DejaVuSans-2e"/>
       <use x="179.19921875" xlink:href="#DejaVuSans-30"/>
       <use x="242.822265625" xlink:href="#DejaVuSans-31"/>
      </g>
     </g>
    </g>
    <g id="xtick_9">
     <g id="line2d_25">
      <g>
       <use style="stroke:#000000;stroke-width:0.5;" x="371.49609375" xlink:href="#m93b0483c22" y="250.2"/>
      </g>
     </g>
     <g id="line2d_26">
      <g>
       <use style="stroke:#000000;stroke-width:0.5;" x="371.49609375" xlink:href="#m741efc42ff" y="180.6"/>
      </g>
     </g>
     <g id="text_6">
      <!-- 0.00 -->
      <g transform="translate(361.025 261.7984375)scale(0.1 -0.1)">
       <use xlink:href="#DejaVuSans-30"/>
       <use x="63.623046875" xlink:href="#DejaVuSans-2e"/>
       <use x="95.41015625" xlink:href="#DejaVuSans-30"/>
       <use x="159.033203125" xlink:href="#DejaVuSans-30"/>
      </g>
     </g>
    </g>
    <g id="xtick_10">
     <g id="line2d_27">
      <g>
       <use style="stroke:#000000;stroke-width:0.5;" x="596.63203125" xlink:href="#m93b0483c22" y="250.2"/>
      </g>
     </g>
     <g id="line2d_28">
      <g>
       <use style="stroke:#000000;stroke-width:0.5;" x="596.63203125" xlink:href="#m741efc42ff" y="180.6"/>
      </g>
     </g>
     <g id="text_7">
      <!-- 0.01 -->
      <g transform="translate(586.290625 261.7984375)scale(0.1 -0.1)">
       <use xlink:href="#DejaVuSans-30"/>
       <use x="63.623046875" xlink:href="#DejaVuSans-2e"/>
       <use x="95.41015625" xlink:href="#DejaVuSans-30"/>
       <use x="159.033203125" xlink:href="#DejaVuSans-31"/>
      </g>
     </g>
    </g>
    <g id="text_8">
     <!-- t in Sekunden -->
     <defs>
      <path d="
M8.5 21.5781
L8.5 54.6875
L17.4844 54.6875
L17.4844 21.9219
Q17.4844 14.1562 20.5 10.2656
Q23.5312 6.39062 29.5938 6.39062
Q36.8594 6.39062 41.0781 11.0312
Q45.3125 15.6719 45.3125 23.6875
L45.3125 54.6875
L54.2969 54.6875
L54.2969 0
L45.3125 0
L45.3125 8.40625
Q42.0469 3.42188 37.7188 1
Q33.4062 -1.42188 27.6875 -1.42188
Q18.2656 -1.42188 13.375 4.4375
Q8.5 10.2969 8.5 21.5781
M31.1094 56
z
" id="DejaVuSans-75"/>
      <path d="
M45.4062 46.3906
L45.4062 75.9844
L54.3906 75.9844
L54.3906 0
L45.4062 0
L45.4062 8.20312
Q42.5781 3.32812 38.25 0.953125
Q33.9375 -1.42188 27.875 -1.42188
Q17.9688 -1.42188 11.7344 6.48438
Q5.51562 14.4062 5.51562 27.2969
Q5.51562 40.1875 11.7344 48.0938
Q17.9688 56 27.875 56
Q33.9375 56 38.25 53.625
Q42.5781 51.2656 45.4062 46.3906
M14.7969 27.2969
Q14.7969 17.3906 18.875 11.75
Q22.9531 6.10938 30.0781 6.10938
Q37.2031 6.10938 41.2969 11.75
Q45.4062 17.3906 45.4062 27.2969
Q45.4062 37.2031 41.2969 42.8438
Q37.2031 48.4844 30.0781 48.4844
Q22.9531 48.4844 18.875 42.8438
Q14.7969 37.2031 14.7969 27.2969" id="DejaVuSans-64"/>
      <path d="
M56.2031 29.5938
L56.2031 25.2031
L14.8906 25.2031
Q15.4844 15.9219 20.4844 11.0625
Q25.4844 6.20312 34.4219 6.20312
Q39.5938 6.20312 44.4531 7.46875
Q49.3125 8.73438 54.1094 11.2812
L54.1094 2.78125
Q49.2656 0.734375 44.1875 -0.34375
Q39.1094 -1.42188 33.8906 -1.42188
Q20.7969 -1.42188 13.1562 6.1875
Q5.51562 13.8125 5.51562 26.8125
Q5.51562 40.2344 12.7656 48.1094
Q20.0156 56 32.3281 56
Q43.3594 56 49.7812 48.8906
Q56.2031 41.7969 56.2031 29.5938
M47.2188 32.2344
Q47.125 39.5938 43.0938 43.9844
Q39.0625 48.3906 32.4219 48.3906
Q24.9062 48.3906 20.3906 44.1406
Q15.875 39.8906 15.1875 32.1719
z
" id="DejaVuSans-65"/>
      <path d="
M9.07812 75.9844
L18.1094 75.9844
L18.1094 31.1094
L44.9219 54.6875
L56.3906 54.6875
L27.3906 29.1094
L57.625 0
L45.9062 0
L18.1094 26.7031
L18.1094 0
L9.07812 0
z
" id="DejaVuSans-6b"/>
     </defs>
     <g transform="translate(337.47734375 276.4765625)scale(0.1 -0.1)">
      <use xlink:href="#DejaVuSans-74"/>
      <use x="39.208984375" xlink:href="#DejaVuSans-20"/>
      <use x="70.99609375" xlink:href="#DejaVuSans-69"/>
      <use x="98.779296875" xlink:href="#DejaVuSans-6e"/>
      <use x="162.158203125" xlink:href="#DejaVuSans-20"/>
      <use x="193.9453125" xlink:href="#DejaVuSans-53"/>
      <use x="257.421875" xlink:href="#DejaVuSans-65"/>
      <use x="318.9453125" xlink:href="#DejaVuSans-6b"/>
      <use x="373.73046875" xlink:href="#DejaVuSans-75"/>
      <use x="437.109375" xlink:href="#DejaVuSans-6e"/>
      <use x="500.48828125" xlink:href="#DejaVuSans-64"/>
      <use x="563.96484375" xlink:href="#DejaVuSans-65"/>
      <use x="625.48828125" xlink:href="#DejaVuSans-6e"/>
     </g>
    </g>
   </g>
   <g id="matplotlib.axis_4">
    <g id="ytick_3">
     <g id="line2d_29">
      <g>
       <use style="stroke:#000000;stroke-width:0.5;" x="33.7921875" xlink:href="#m728421d6d4" y="250.2"/>
      </g>
     </g>
     <g id="line2d_30">
      <g>
       <use style="stroke:#000000;stroke-width:0.5;" x="709.2" xlink:href="#mcb0005524f" y="250.2"/>
      </g>
     </g>
     <g id="text_9">
      <!-- 0 -->
      <g transform="translate(24.753125 252.959375)scale(0.1 -0.1)">
       <use xlink:href="#DejaVuSans-30"/>
      </g>
     </g>
    </g>
    <g id="ytick_4">
     <g id="line2d_31">
      <g>
       <use style="stroke:#000000;stroke-width:0.5;" x="33.7921875" xlink:href="#m728421d6d4" y="192.2"/>
      </g>
     </g>
     <g id="line2d_32">
      <g>
       <use style="stroke:#000000;stroke-width:0.5;" x="709.2" xlink:href="#mcb0005524f" y="192.2"/>
      </g>
     </g>
     <g id="text_10">
      <!-- 5 -->
      <g transform="translate(25.075 194.959375)scale(0.1 -0.1)">
       <use xlink:href="#DejaVuSans-35"/>
      </g>
     </g>
    </g>
    <g id="text_11">
     <!-- U in Volt -->
     <g transform="translate(17.6734375 236.1171875)rotate(-90.0)scale(0.1 -0.1)">
      <use xlink:href="#DejaVuSans-55"/>
      <use x="73.193359375" xlink:href="#DejaVuSans-20"/>
      <use x="104.98046875" xlink:href="#DejaVuSans-69"/>
      <use x="132.763671875" xlink:href="#DejaVuSans-6e"/>
      <use x="196.142578125" xlink:href="#DejaVuSans-20"/>
      <use x="227.9296875" xlink:href="#DejaVuSans-56"/>
      <use x="288.587890625" xlink:href="#DejaVuSans-6f"/>
      <use x="349.76953125" xlink:href="#DejaVuSans-6c"/>
      <use x="377.552734375" xlink:href="#DejaVuSans-74"/>
     </g>
    </g>
   </g>
   <g id="patch_9">
    <path d="
M33.7922 180.6
L709.2 180.6" style="fill:none;stroke:#000000;"/>
   </g>
   <g id="patch_10">
    <path d="
M709.2 250.2
L709.2 180.6" style="fill:none;stroke:#000000;"/>
   </g>
   <g id="patch_11">
    <path d="
M33.7922 250.2
L709.2 250.2" style="fill:none;stroke:#000000;"/>
   </g>
   <g id="patch_12">
    <path d="
M33.7922 250.2
L33.7922 180.6" style="fill:none;stroke:#000000;"/>
   </g>
   <g id="legend_2">
    <g id="patch_13">
     <path d="
M618.585 244.2
L703.2 244.2
L703.2 222.986
L618.585 222.986
L618.585 244.2
z
" style="fill:#ffffff;stroke:#000000;"/>
    </g>
    <g id="line2d_33">
     <path d="
M626.985 232.704
L643.785 232.704" style="fill:none;stroke:#008000;stroke-linecap:square;stroke-width:2;"/>
    </g>
    <g id="line2d_34"/>
    <g id="text_12">
     <!-- Trigger -->
     <defs>
      <path d="
M41.1094 46.2969
Q39.5938 47.1719 37.8125 47.5781
Q36.0312 48 33.8906 48
Q26.2656 48 22.1875 43.0469
Q18.1094 38.0938 18.1094 28.8125
L18.1094 0
L9.07812 0
L9.07812 54.6875
L18.1094 54.6875
L18.1094 46.1875
Q20.9531 51.1719 25.4844 53.5781
Q30.0312 56 36.5312 56
Q37.4531 56 38.5781 55.875
Q39.7031 55.7656 41.0625 55.5156
z
" id="DejaVuSans-72"/>
      <path d="
M-0.296875 72.9062
L61.375 72.9062
L61.375 64.5938
L35.5 64.5938
L35.5 0
L25.5938 0
L25.5938 64.5938
L-0.296875 64.5938
z
" id="DejaVuSans-54"/>
     </defs>
     <g transform="translate(656.985 236.904375)scale(0.12 -0.12)">
      <use xlink:href="#DejaVuSans-54"/>
      <use x="46.333984375" xlink:href="#DejaVuSans-72"/>
      <use x="87.447265625" xlink:href="#DejaVuSans-69"/>
      <use x="115.23046875" xlink:href="#DejaVuSans-67"/>
      <use x="178.70703125" xlink:href="#DejaVuSans-67"/>
      <use x="242.18359375" xlink:href="#DejaVuSans-65"/>
      <use x="303.70703125" xlink:href="#DejaVuSans-72"/>
     </g>
    </g>
   </g>
  </g>
 </g>
 <defs>
  <clipPath id="p56a0c14018">
   <rect height="69.6" width="675.4078125" x="33.7921875" y="180.6"/>
  </clipPath>
  <clipPath id="p579b2931fc">
   <rect height="154.5" width="675.4078125" x="33.7921875" y="10.8"/>
  </clipPath>
 </defs>
</svg>
