<?xml version="1.0" encoding="utf-8" standalone="no"?>
<!DOCTYPE svg PUBLIC "-//W3C//DTD SVG 1.1//EN"
  "http://www.w3.org/Graphics/SVG/1.1/DTD/svg11.dtd">
<!-- Created with matplotlib (http://matplotlib.org/) -->
<svg height="288pt" version="1.1" viewBox="0 0 720 288" width="720pt" xmlns="http://www.w3.org/2000/svg" xmlns:xlink="http://www.w3.org/1999/xlink">
 <defs>
  <style type="text/css">
*{stroke-linecap:butt;stroke-linejoin:round;}
  </style>
 </defs>
 <g id="figure_1">
  <g id="patch_1">
   <path d="
M0 288
L720 288
L720 0
L0 0
z
" style="fill:#ffffff;"/>
  </g>
  <g id="axes_1">
   <g id="patch_2">
    <path d="
M33.7922 165.3
L709.2 165.3
L709.2 10.8
L33.7922 10.8
z
" style="fill:#ffffff;"/>
   </g>
   <g id="line2d_1">
    <path clip-path="url(#p579b2931fc)" d="
M90.0762 163.24
L90.3013 163.24
L90.5264 165.3
L90.7516 165.3
L90.9767 163.24
L92.5527 163.24
L92.7778 165.3
L93.0029 163.24
L93.6783 163.24
L93.9035 165.3
L94.1286 163.24
L94.5789 163.24
L94.804 165.3
L95.0292 163.24
L97.0554 163.24
L97.2805 165.3
L97.5057 163.24
L97.7308 165.3
L98.4062 165.3
L98.6313 163.24
L98.8565 163.24
L99.0816 165.3
L99.3067 163.24
L99.5319 163.24
L99.757 165.3
L99.9822 163.24
L100.432 163.24
L100.658 165.3
L100.883 163.24
L104.035 163.24
L104.26 165.3
L104.485 163.24
L108.312 163.24
L108.537 165.3
L108.762 163.24
L109.438 163.24
L109.663 165.3
L109.888 163.24
L111.914 163.24
L112.139 165.3
L112.365 163.24
L113.04 163.24
L113.265 165.3
L113.49 163.24
L113.941 163.24
L114.166 165.3
L114.391 163.24
L114.841 163.24
L115.066 165.3
L115.291 163.24
L116.417 163.24
L116.642 165.3
L116.867 165.3
L117.092 163.24
L117.318 163.24
L117.543 165.3
L117.768 163.24
L117.993 163.24
L118.218 165.3
L118.443 163.24
L118.668 165.3
L118.894 163.24
L119.344 163.24
L119.569 165.3
L119.794 163.24
L120.244 163.24
L120.47 165.3
L120.695 163.24
L120.92 165.3
L121.145 165.3
L121.37 163.24
L122.271 163.24
L122.496 165.3
L122.721 163.24
L124.522 163.24
L124.747 165.3
L124.972 163.24
L125.423 163.24
L125.648 165.3
L125.873 165.3
L126.098 163.24
L126.548 163.24
L126.773 165.3
L126.998 163.24
L127.674 163.24
L127.899 165.3
L128.124 163.24
L128.349 165.3
L128.574 165.3
L128.8 163.24
L129.925 163.24
L130.15 165.3
L130.376 163.24
L131.276 163.24
L131.501 165.3
L131.726 163.24
L131.951 165.3
L132.177 163.24
L132.627 163.24
L132.852 165.3
L133.077 165.3
L133.302 163.24
L133.978 163.24
L134.203 165.3
L134.428 165.3
L134.653 163.24
L137.13 163.24
L137.355 165.3
L137.58 165.3
L137.805 163.24
L138.03 165.3
L138.48 165.3
L138.706 163.24
L138.931 163.24
L139.156 165.3
L139.381 163.24
L139.831 163.24
L140.056 165.3
L140.281 163.24
L140.732 163.24
L140.957 165.3
L141.182 163.24
L141.632 163.24
L141.857 165.3
L142.533 165.3
L142.758 163.24
L143.433 163.24
L143.659 35.52
L144.334 35.52
L144.559 37.58
L144.784 35.52
L147.486 35.52
L147.711 33.46
L147.936 35.52
L149.962 35.52
L150.187 37.58
L150.413 35.52
L156.266 35.52
L156.491 33.46
L156.716 33.46
L156.942 35.52
L158.743 35.52
L158.968 33.46
L159.193 35.52
L161.669 35.52
L161.895 33.46
L162.12 35.52
L165.947 35.52
L166.172 33.46
L166.397 35.52
L170.45 35.52
L170.675 33.46
L170.9 35.52
L172.026 35.52
L172.251 33.46
L172.476 35.52
L174.277 35.52
L174.502 33.46
L174.727 35.52
L175.178 35.52
L175.403 33.46
L175.628 35.52
L176.528 35.52
L176.754 33.46
L176.979 35.52
L177.429 35.52
L177.654 33.46
L177.879 35.52
L190.262 35.52
L190.487 37.58
L190.712 35.52
L192.963 35.52
L193.188 37.58
L193.414 35.52
L194.99 35.52
L195.215 33.46
L195.44 35.52
L195.665 35.52
L195.89 33.46
L196.115 35.52
L196.34 35.52
L196.565 33.46
L196.791 35.52
L203.32 35.52
L203.545 37.58
L203.77 35.52
L205.571 35.52
L205.796 33.46
L206.021 35.52
L206.922 35.52
L207.147 33.46
L207.372 33.46
L207.597 35.52
L207.822 33.46
L208.273 37.58
L208.498 35.52
L209.398 35.52
L209.623 33.46
L209.848 35.52
L217.953 35.52
L218.179 33.46
L218.404 35.52
L219.304 35.52
L219.529 33.46
L219.754 35.52
L220.88 35.52
L221.105 37.58
L221.33 35.52
L223.132 35.52
L223.357 37.58
L223.582 37.58
L223.807 35.52
L226.283 35.52
L226.509 37.58
L226.734 35.52
L226.959 35.52
L227.184 33.46
L227.409 35.52
L228.31 35.52
L228.535 37.58
L228.76 35.52
L230.336 35.52
L230.561 37.58
L230.786 35.52
L231.011 35.52
L231.236 33.46
L231.462 35.52
L236.64 35.52
L236.865 33.46
L237.09 35.52
L237.99 35.52
L238.216 33.46
L238.441 35.52
L238.666 35.52
L238.891 37.58
L239.116 35.52
L240.242 35.52
L240.467 37.58
L240.692 35.52
L246.095 35.52
L246.321 33.46
L246.546 35.52
L246.771 35.52
L246.996 33.46
L247.221 35.52
L247.446 35.52
L247.671 33.46
L248.122 33.46
L248.347 35.52
L248.572 35.52
L248.797 33.46
L249.022 37.58
L249.247 33.46
L249.472 33.46
L249.698 35.52
L251.724 35.52
L251.949 33.46
L252.174 35.52
L253.3 35.52
L253.525 37.58
L253.75 35.52
L257.127 35.52
L257.352 163.24
L260.504 163.24
L260.729 165.3
L260.954 163.24
L262.755 163.24
L262.981 165.3
L263.206 163.24
L264.782 163.24
L265.007 165.3
L265.232 163.24
L265.457 165.3
L265.682 163.24
L267.934 163.24
L268.159 165.3
L268.384 163.24
L268.609 163.24
L268.834 165.3
L269.059 163.24
L269.284 165.3
L269.51 163.24
L270.41 163.24
L270.635 165.3
L270.86 165.3
L271.085 163.24
L271.311 163.24
L271.536 165.3
L271.761 163.24
L275.588 163.24
L275.813 165.3
L276.038 163.24
L276.264 165.3
L276.489 163.24
L277.389 163.24
L277.614 165.3
L277.84 163.24
L278.515 163.24
L278.74 165.3
L278.965 163.24
L279.19 165.3
L279.415 163.24
L280.091 163.24
L280.316 165.3
L280.541 163.24
L281.442 163.24
L281.667 165.3
L281.892 163.24
L282.342 163.24
L282.567 165.3
L282.793 163.24
L283.018 165.3
L283.243 165.3
L283.468 163.24
L284.819 163.24
L285.044 165.3
L285.269 163.24
L285.944 163.24
L286.17 165.3
L286.395 163.24
L287.52 163.24
L287.746 165.3
L287.971 163.24
L288.421 163.24
L288.646 165.3
L288.871 163.24
L289.997 163.24
L290.222 165.3
L290.447 163.24
L292.699 163.24
L292.924 165.3
L293.149 163.24
L293.599 163.24
L293.824 165.3
L294.5 165.3
L294.725 163.24
L295.625 163.24
L295.85 165.3
L296.076 163.24
L299.227 163.24
L299.453 165.3
L299.678 163.24
L299.903 163.24
L300.128 165.3
L300.353 163.24
L301.479 163.24
L301.704 165.3
L301.929 163.24
L303.505 163.24
L303.73 165.3
L303.955 163.24
L304.18 163.24
L304.406 165.3
L304.631 163.24
L305.531 163.24
L305.756 165.3
L305.982 163.24
L307.557 163.24
L307.783 165.3
L308.008 163.24
L308.458 163.24
L308.683 165.3
L308.908 163.24
L309.133 165.3
L309.359 163.24
L309.584 163.24
L309.809 165.3
L310.034 163.24
L310.935 163.24
L311.16 165.3
L311.385 163.24
L312.961 163.24
L313.186 165.3
L313.411 163.24
L314.537 163.24
L314.762 165.3
L314.987 163.24
L315.662 163.24
L315.888 165.3
L316.338 165.3
L316.563 163.24
L316.788 165.3
L317.013 163.24
L318.364 163.24
L318.589 165.3
L318.814 163.24
L319.039 163.24
L319.265 165.3
L319.49 163.24
L320.841 163.24
L321.066 165.3
L321.291 163.24
L326.019 163.24
L326.244 165.3
L326.919 165.3
L327.144 163.24
L327.369 163.24
L327.595 165.3
L328.045 165.3
L328.27 163.24
L328.495 165.3
L328.72 165.3
L328.945 163.24
L330.521 163.24
L330.746 165.3
L330.972 165.3
L331.197 163.24
L331.422 165.3
L331.647 163.24
L331.872 163.24
L332.097 165.3
L332.322 163.24
L333.673 163.24
L333.898 165.3
L334.124 163.24
L336.15 163.24
L336.375 165.3
L336.6 163.24
L339.302 163.24
L339.527 165.3
L339.752 163.24
L340.202 163.24
L340.427 165.3
L340.652 163.24
L340.878 163.24
L341.103 165.3
L341.328 163.24
L343.579 163.24
L343.804 165.3
L344.03 163.24
L344.93 163.24
L345.155 165.3
L345.38 163.24
L346.056 163.24
L346.281 165.3
L346.506 163.24
L346.731 165.3
L346.956 163.24
L347.181 165.3
L347.407 163.24
L347.632 165.3
L347.857 163.24
L348.307 163.24
L348.532 165.3
L348.757 165.3
L348.983 163.24
L350.558 163.24
L350.784 165.3
L351.009 163.24
L351.459 163.24
L351.684 165.3
L351.909 165.3
L352.134 163.24
L352.36 163.24
L352.585 165.3
L352.81 163.24
L353.485 163.24
L353.71 165.3
L353.935 163.24
L355.286 163.24
L355.511 165.3
L355.737 163.24
L357.538 163.24
L357.763 165.3
L357.988 163.24
L358.438 163.24
L358.663 165.3
L358.888 163.24
L360.239 163.24
L360.464 165.3
L360.69 165.3
L360.915 163.24
L361.14 165.3
L361.365 163.24
L361.59 165.3
L361.815 163.24
L362.04 165.3
L362.266 165.3
L362.491 163.24
L362.716 165.3
L362.941 163.24
L363.841 163.24
L364.067 165.3
L364.292 163.24
L369.47 163.24
L369.695 165.3
L369.92 161.18
L370.145 165.3
L370.37 163.24
L370.596 163.24
L370.821 165.3
L371.046 163.24
L371.271 35.52
L372.397 35.52
L372.622 37.58
L372.847 35.52
L375.549 35.52
L375.774 37.58
L375.999 35.52
L376.224 37.58
L376.449 35.52
L377.124 35.52
L377.35 37.58
L377.575 35.52
L378.475 35.52
L378.7 33.46
L378.926 35.52
L380.727 35.52
L380.952 37.58
L381.177 35.52
L389.507 35.52
L389.732 33.46
L390.182 37.58
L390.408 35.52
L390.858 35.52
L391.083 37.58
L391.308 35.52
L393.334 35.52
L393.559 37.58
L393.785 35.52
L394.01 35.52
L394.235 161.18
L394.46 163.24
L394.685 163.24
L394.91 165.3
L395.135 163.24
L396.936 163.24
L397.162 165.3
L397.387 163.24
L398.738 163.24
L398.963 165.3
L399.188 163.24
L399.413 163.24
L399.638 165.3
L399.863 163.24
L400.313 163.24
L400.539 165.3
L400.764 163.24
L402.79 163.24
L403.015 165.3
L403.24 163.24
L403.465 165.3
L403.691 163.24
L404.141 163.24
L404.366 165.3
L404.591 163.24
L405.266 163.24
L405.492 165.3
L405.717 163.24
L406.167 163.24
L406.392 165.3
L406.617 163.24
L406.842 163.24
L407.068 165.3
L407.293 163.24
L407.518 165.3
L407.743 163.24
L408.418 163.24
L408.644 165.3
L408.869 165.3
L409.094 163.24
L409.319 165.3
L409.769 165.3
L409.994 163.24
L410.67 163.24
L410.895 165.3
L411.12 163.24
L411.345 165.3
L411.57 165.3
L411.795 163.24
L413.597 163.24
L413.822 165.3
L414.047 163.24
L416.974 163.24
L417.199 165.3
L417.424 37.58
L417.649 35.52
L435.435 35.52
L435.66 37.58
L435.885 35.52
L439.037 35.52
L439.262 37.58
L439.487 35.52
L440.163 35.52
L440.388 163.24
L441.288 163.24
L441.513 165.3
L441.739 163.24
L442.189 163.24
L442.414 165.3
L442.639 163.24
L442.864 163.24
L443.089 165.3
L443.314 163.24
L445.116 163.24
L445.341 165.3
L445.566 163.24
L446.241 163.24
L446.466 165.3
L446.691 163.24
L446.917 165.3
L447.142 163.24
L449.393 163.24
L449.618 165.3
L449.843 163.24
L450.069 163.24
L450.294 165.3
L450.519 163.24
L450.969 163.24
L451.194 165.3
L451.419 163.24
L451.87 163.24
L452.095 161.18
L452.32 165.3
L452.545 163.24
L452.77 165.3
L452.995 163.24
L453.446 163.24
L453.671 165.3
L453.896 163.24
L454.121 165.3
L454.346 163.24
L454.571 165.3
L454.796 165.3
L455.022 163.24
L455.247 163.24
L455.472 165.3
L455.697 163.24
L456.597 163.24
L456.823 165.3
L457.048 163.24
L457.273 165.3
L457.498 163.24
L457.723 165.3
L457.948 163.24
L458.173 165.3
L458.399 165.3
L458.624 163.24
L459.524 163.24
L459.749 165.3
L459.975 163.24
L460.2 165.3
L460.425 163.24
L460.65 165.3
L460.875 165.3
L461.1 163.24
L462.676 163.24
L462.901 165.3
L463.126 163.24
L463.352 37.58
L463.577 35.52
L464.928 35.52
L465.153 37.58
L465.378 35.52
L467.629 35.52
L467.854 33.46
L468.079 35.52
L470.781 35.52
L471.006 33.46
L471.231 35.52
L473.933 35.52
L474.158 33.46
L474.383 33.46
L474.608 35.52
L475.059 35.52
L475.284 37.58
L475.509 35.52
L475.734 35.52
L475.959 37.58
L476.184 35.52
L477.985 35.52
L478.211 37.58
L478.436 35.52
L483.614 35.52
L483.839 37.58
L484.064 35.52
L484.965 35.52
L485.19 37.58
L485.415 35.52
L486.315 35.52
L486.541 163.24
L486.766 165.3
L486.991 163.24
L488.342 163.24
L488.567 165.3
L488.792 165.3
L489.017 163.24
L489.918 163.24
L490.143 165.3
L490.368 165.3
L490.593 163.24
L491.043 163.24
L491.268 165.3
L491.494 163.24
L491.944 163.24
L492.169 165.3
L492.394 165.3
L492.619 163.24
L493.07 163.24
L493.295 165.3
L493.52 163.24
L495.096 163.24
L495.321 165.3
L495.546 165.3
L495.771 163.24
L495.996 165.3
L496.221 163.24
L496.672 163.24
L496.897 165.3
L497.122 163.24
L498.022 163.24
L498.248 165.3
L498.473 163.24
L500.049 163.24
L500.274 165.3
L500.499 163.24
L500.724 165.3
L500.949 163.24
L501.174 163.24
L501.4 165.3
L501.625 163.24
L501.85 165.3
L502.075 163.24
L502.3 165.3
L502.525 163.24
L503.426 163.24
L503.651 165.3
L503.876 163.24
L504.326 163.24
L504.551 165.3
L504.777 163.24
L505.227 163.24
L505.452 165.3
L505.677 163.24
L506.353 163.24
L506.578 165.3
L506.803 165.3
L507.028 163.24
L507.928 163.24
L508.154 165.3
L508.379 165.3
L508.604 163.24
L508.829 165.3
L509.054 163.24
L509.279 163.24
L509.504 37.58
L509.73 35.52
L511.306 35.52
L511.531 37.58
L511.756 35.52
L515.808 35.52
L516.033 37.58
L516.259 35.52
L517.159 35.52
L517.384 33.46
L517.609 35.52
L518.06 35.52
L518.285 37.58
L518.51 35.52
L518.735 35.52
L518.96 33.46
L519.185 35.52
L519.636 35.52
L519.861 33.46
L520.086 33.46
L520.311 35.52
L520.536 33.46
L520.761 35.52
L521.662 35.52
L521.887 33.46
L522.112 35.52
L524.589 35.52
L524.814 37.58
L525.039 35.52
L528.191 35.52
L528.416 37.58
L528.641 35.52
L530.442 35.52
L530.667 33.46
L530.892 35.52
L532.243 35.52
L532.468 33.46
L532.693 163.24
L532.919 163.24
L533.144 165.3
L533.369 163.24
L534.495 163.24
L534.72 165.3
L534.945 163.24
L535.62 163.24
L535.845 165.3
L536.07 163.24
L536.971 163.24
L537.196 165.3
L537.421 163.24
L537.646 163.24
L537.872 165.3
L538.097 163.24
L538.547 163.24
L538.772 165.3
L538.997 163.24
L539.222 163.24
L539.448 165.3
L539.673 165.3
L539.898 163.24
L541.249 163.24
L541.474 165.3
L541.699 163.24
L541.924 163.24
L542.149 165.3
L542.374 163.24
L542.599 165.3
L542.825 165.3
L543.05 163.24
L544.4 163.24
L544.626 165.3
L544.851 165.3
L545.076 163.24
L545.526 163.24
L545.751 165.3
L545.976 163.24
L546.202 165.3
L546.427 163.24
L548.453 163.24
L548.678 165.3
L548.903 163.24
L550.029 163.24
L550.254 165.3
L550.479 165.3
L550.704 163.24
L550.929 165.3
L551.155 163.24
L551.83 163.24
L552.055 165.3
L552.28 163.24
L552.731 163.24
L552.956 165.3
L553.181 165.3
L553.406 163.24
L553.631 165.3
L553.856 163.24
L554.081 165.3
L554.532 165.3
L554.757 163.24
L555.432 163.24
L555.657 37.58
L555.882 35.52
L558.359 35.52
L558.584 37.58
L559.034 33.46
L559.259 35.52
L559.485 35.52
L559.71 37.58
L559.935 35.52
L560.385 35.52
L560.61 37.58
L561.061 33.46
L561.286 35.52
L563.312 35.52
L563.537 37.58
L563.762 35.52
L564.888 35.52
L565.113 37.58
L565.338 35.52
L569.391 35.52
L569.616 37.58
L569.841 35.52
L578.396 35.52
L578.621 163.24
L578.846 163.24
L579.071 165.3
L579.297 163.24
L580.647 163.24
L580.873 165.3
L581.098 163.24
L581.323 165.3
L581.548 163.24
L583.124 163.24
L583.349 165.3
L583.574 163.24
L583.799 163.24
L584.024 165.3
L584.25 163.24
L584.475 165.3
L584.7 163.24
L584.925 165.3
L585.15 165.3
L585.375 163.24
L585.6 165.3
L585.826 163.24
L586.051 163.24
L586.276 165.3
L586.501 163.24
L587.176 163.24
L587.401 165.3
L587.627 163.24
L587.852 165.3
L588.077 163.24
L589.203 163.24
L589.428 165.3
L589.653 163.24
L591.454 163.24
L591.679 165.3
L591.904 165.3
L592.129 163.24
L592.354 165.3
L592.58 163.24
L593.03 163.24
L593.255 165.3
L593.48 165.3
L593.705 163.24
L593.93 163.24
L594.156 165.3
L594.381 163.24
L595.731 163.24
L595.957 165.3
L596.182 165.3
L596.407 163.24
L597.307 163.24
L597.533 165.3
L597.758 163.24
L597.983 165.3
L598.208 163.24
L599.334 163.24
L599.559 165.3
L599.784 163.24
L600.009 163.24
L600.234 165.3
L600.459 163.24
L601.36 163.24
L601.585 165.3
L601.81 35.52
L602.26 35.52
L602.486 37.58
L602.711 35.52
L604.512 35.52
L604.737 37.58
L604.962 35.52
L607.889 35.52
L608.114 33.46
L608.339 35.52
L609.015 35.52
L609.24 37.58
L609.465 35.52
L613.967 35.52
L614.193 37.58
L614.418 35.52
L614.643 37.58
L614.868 35.52
L615.093 37.58
L615.318 35.52
L617.57 35.52
L617.795 37.58
L618.02 35.52
L618.245 35.52
L618.47 33.46
L618.695 35.52
L623.648 35.52
L623.873 33.46
L624.099 35.52
L624.549 35.52
L624.774 163.24
L624.999 163.24
L625.224 165.3
L625.449 163.24
L626.125 163.24
L626.35 165.3
L626.575 163.24
L627.025 163.24
L627.251 165.3
L627.476 165.3
L627.701 163.24
L628.601 163.24
L628.826 165.3
L629.052 165.3
L629.277 163.24
L629.502 165.3
L629.727 163.24
L629.952 163.24
L630.177 165.3
L630.402 163.24
L631.528 163.24
L631.753 165.3
L631.978 165.3
L632.204 163.24
L632.654 163.24
L632.879 165.3
L633.104 163.24
L633.329 163.24
L633.554 165.3
L633.779 163.24
L634.005 165.3
L634.23 163.24
L635.806 163.24
L636.031 165.3
L636.256 163.24
L636.481 163.24
L636.706 165.3
L636.931 163.24
L637.157 165.3
L637.382 165.3
L637.607 163.24
L638.057 163.24
L638.282 165.3
L638.507 163.24
L638.958 163.24
L639.183 165.3
L639.408 163.24
L640.534 163.24
L640.759 165.3
L640.984 163.24
L643.235 163.24
L643.46 165.3
L643.685 163.24
L643.911 165.3
L644.136 163.24
L644.361 163.24
L644.586 165.3
L644.811 163.24
L646.612 163.24
L646.837 165.3
L647.062 163.24
L647.738 163.24
L647.963 35.52
L650.665 35.52
L650.89 37.58
L651.115 35.52
L652.691 35.52
L652.691 35.52" style="fill:none;stroke:#0000ff;stroke-linecap:square;stroke-width:2;"/>
   </g>
   <g id="matplotlib.axis_1">
    <g id="xtick_1">
     <g id="line2d_2">
      <defs>
       <path d="
M0 0
L0 -4" id="m93b0483c22" style="stroke:#000000;stroke-width:0.5;"/>
      </defs>
      <g>
       <use style="stroke:#000000;stroke-width:0.5;" x="33.7921875" xlink:href="#m93b0483c22" y="165.3"/>
      </g>
     </g>
     <g id="line2d_3">
      <defs>
       <path d="
M0 0
L0 4" id="m741efc42ff" style="stroke:#000000;stroke-width:0.5;"/>
      </defs>
      <g>
       <use style="stroke:#000000;stroke-width:0.5;" x="33.7921875" xlink:href="#m741efc42ff" y="10.8"/>
      </g>
     </g>
    </g>
    <g id="xtick_2">
     <g id="line2d_4">
      <g>
       <use style="stroke:#000000;stroke-width:0.5;" x="146.36015625" xlink:href="#m93b0483c22" y="165.3"/>
      </g>
     </g>
     <g id="line2d_5">
      <g>
       <use style="stroke:#000000;stroke-width:0.5;" x="146.36015625" xlink:href="#m741efc42ff" y="10.8"/>
      </g>
     </g>
    </g>
    <g id="xtick_3">
     <g id="line2d_6">
      <g>
       <use style="stroke:#000000;stroke-width:0.5;" x="258.928125" xlink:href="#m93b0483c22" y="165.3"/>
      </g>
     </g>
     <g id="line2d_7">
      <g>
       <use style="stroke:#000000;stroke-width:0.5;" x="258.928125" xlink:href="#m741efc42ff" y="10.8"/>
      </g>
     </g>
    </g>
    <g id="xtick_4">
     <g id="line2d_8">
      <g>
       <use style="stroke:#000000;stroke-width:0.5;" x="371.49609375" xlink:href="#m93b0483c22" y="165.3"/>
      </g>
     </g>
     <g id="line2d_9">
      <g>
       <use style="stroke:#000000;stroke-width:0.5;" x="371.49609375" xlink:href="#m741efc42ff" y="10.8"/>
      </g>
     </g>
    </g>
    <g id="xtick_5">
     <g id="line2d_10">
      <g>
       <use style="stroke:#000000;stroke-width:0.5;" x="484.0640625" xlink:href="#m93b0483c22" y="165.3"/>
      </g>
     </g>
     <g id="line2d_11">
      <g>
       <use style="stroke:#000000;stroke-width:0.5;" x="484.0640625" xlink:href="#m741efc42ff" y="10.8"/>
      </g>
     </g>
    </g>
    <g id="xtick_6">
     <g id="line2d_12">
      <g>
       <use style="stroke:#000000;stroke-width:0.5;" x="596.63203125" xlink:href="#m93b0483c22" y="165.3"/>
      </g>
     </g>
     <g id="line2d_13">
      <g>
       <use style="stroke:#000000;stroke-width:0.5;" x="596.63203125" xlink:href="#m741efc42ff" y="10.8"/>
      </g>
     </g>
    </g>
    <g id="xtick_7">
     <g id="line2d_14">
      <g>
       <use style="stroke:#000000;stroke-width:0.5;" x="709.2" xlink:href="#m93b0483c22" y="165.3"/>
      </g>
     </g>
     <g id="line2d_15">
      <g>
       <use style="stroke:#000000;stroke-width:0.5;" x="709.2" xlink:href="#m741efc42ff" y="10.8"/>
      </g>
     </g>
    </g>
   </g>
   <g id="matplotlib.axis_2">
    <g id="ytick_1">
     <g id="line2d_16">
      <defs>
       <path d="
M0 0
L4 0" id="m728421d6d4" style="stroke:#000000;stroke-width:0.5;"/>
      </defs>
      <g>
       <use style="stroke:#000000;stroke-width:0.5;" x="33.7921875" xlink:href="#m728421d6d4" y="165.3"/>
      </g>
     </g>
     <g id="line2d_17">
      <defs>
       <path d="
M0 0
L-4 0" id="mcb0005524f" style="stroke:#000000;stroke-width:0.5;"/>
      </defs>
      <g>
       <use style="stroke:#000000;stroke-width:0.5;" x="709.2" xlink:href="#mcb0005524f" y="165.3"/>
      </g>
     </g>
     <g id="text_1">
      <!-- 0 -->
      <defs>
       <path d="
M31.7812 66.4062
Q24.1719 66.4062 20.3281 58.9062
Q16.5 51.4219 16.5 36.375
Q16.5 21.3906 20.3281 13.8906
Q24.1719 6.39062 31.7812 6.39062
Q39.4531 6.39062 43.2812 13.8906
Q47.125 21.3906 47.125 36.375
Q47.125 51.4219 43.2812 58.9062
Q39.4531 66.4062 31.7812 66.4062
M31.7812 74.2188
Q44.0469 74.2188 50.5156 64.5156
Q56.9844 54.8281 56.9844 36.375
Q56.9844 17.9688 50.5156 8.26562
Q44.0469 -1.42188 31.7812 -1.42188
Q19.5312 -1.42188 13.0625 8.26562
Q6.59375 17.9688 6.59375 36.375
Q6.59375 54.8281 13.0625 64.5156
Q19.5312 74.2188 31.7812 74.2188" id="DejaVuSans-30"/>
      </defs>
      <g transform="translate(24.753125 168.059375)scale(0.1 -0.1)">
       <use xlink:href="#DejaVuSans-30"/>
      </g>
     </g>
    </g>
    <g id="ytick_2">
     <g id="line2d_18">
      <g>
       <use style="stroke:#000000;stroke-width:0.5;" x="33.7921875" xlink:href="#m728421d6d4" y="36.55"/>
      </g>
     </g>
     <g id="line2d_19">
      <g>
       <use style="stroke:#000000;stroke-width:0.5;" x="709.2" xlink:href="#mcb0005524f" y="36.55"/>
      </g>
     </g>
     <g id="text_2">
      <!-- 5 -->
      <defs>
       <path d="
M10.7969 72.9062
L49.5156 72.9062
L49.5156 64.5938
L19.8281 64.5938
L19.8281 46.7344
Q21.9688 47.4688 24.1094 47.8281
Q26.2656 48.1875 28.4219 48.1875
Q40.625 48.1875 47.75 41.5
Q54.8906 34.8125 54.8906 23.3906
Q54.8906 11.625 47.5625 5.09375
Q40.2344 -1.42188 26.9062 -1.42188
Q22.3125 -1.42188 17.5469 -0.640625
Q12.7969 0.140625 7.71875 1.70312
L7.71875 11.625
Q12.1094 9.23438 16.7969 8.0625
Q21.4844 6.89062 26.7031 6.89062
Q35.1562 6.89062 40.0781 11.3281
Q45.0156 15.7656 45.0156 23.3906
Q45.0156 31 40.0781 35.4375
Q35.1562 39.8906 26.7031 39.8906
Q22.75 39.8906 18.8125 39.0156
Q14.8906 38.1406 10.7969 36.2812
z
" id="DejaVuSans-35"/>
      </defs>
      <g transform="translate(25.075 39.309375)scale(0.1 -0.1)">
       <use xlink:href="#DejaVuSans-35"/>
      </g>
     </g>
    </g>
    <g id="text_3">
     <!-- U in Volt -->
     <defs>
      <path d="
M30.6094 48.3906
Q23.3906 48.3906 19.1875 42.75
Q14.9844 37.1094 14.9844 27.2969
Q14.9844 17.4844 19.1562 11.8438
Q23.3438 6.20312 30.6094 6.20312
Q37.7969 6.20312 41.9844 11.8594
Q46.1875 17.5312 46.1875 27.2969
Q46.1875 37.0156 41.9844 42.7031
Q37.7969 48.3906 30.6094 48.3906
M30.6094 56
Q42.3281 56 49.0156 48.375
Q55.7188 40.7656 55.7188 27.2969
Q55.7188 13.875 49.0156 6.21875
Q42.3281 -1.42188 30.6094 -1.42188
Q18.8438 -1.42188 12.1719 6.21875
Q5.51562 13.875 5.51562 27.2969
Q5.51562 40.7656 12.1719 48.375
Q18.8438 56 30.6094 56" id="DejaVuSans-6f"/>
      <path d="
M54.8906 33.0156
L54.8906 0
L45.9062 0
L45.9062 32.7188
Q45.9062 40.4844 42.875 44.3281
Q39.8438 48.1875 33.7969 48.1875
Q26.5156 48.1875 22.3125 43.5469
Q18.1094 38.9219 18.1094 30.9062
L18.1094 0
L9.07812 0
L9.07812 54.6875
L18.1094 54.6875
L18.1094 46.1875
Q21.3438 51.125 25.7031 53.5625
Q30.0781 56 35.7969 56
Q45.2188 56 50.0469 50.1719
Q54.8906 44.3438 54.8906 33.0156" id="DejaVuSans-6e"/>
      <path d="
M9.42188 75.9844
L18.4062 75.9844
L18.4062 0
L9.42188 0
z
" id="DejaVuSans-6c"/>
      <path id="DejaVuSans-20"/>
      <path d="
M9.42188 54.6875
L18.4062 54.6875
L18.4062 0
L9.42188 0
z

M9.42188 75.9844
L18.4062 75.9844
L18.4062 64.5938
L9.42188 64.5938
z
" id="DejaVuSans-69"/>
      <path d="
M18.3125 70.2188
L18.3125 54.6875
L36.8125 54.6875
L36.8125 47.7031
L18.3125 47.7031
L18.3125 18.0156
Q18.3125 11.3281 20.1406 9.42188
Q21.9688 7.51562 27.5938 7.51562
L36.8125 7.51562
L36.8125 0
L27.5938 0
Q17.1875 0 13.2344 3.875
Q9.28125 7.76562 9.28125 18.0156
L9.28125 47.7031
L2.6875 47.7031
L2.6875 54.6875
L9.28125 54.6875
L9.28125 70.2188
z
" id="DejaVuSans-74"/>
      <path d="
M28.6094 0
L0.78125 72.9062
L11.0781 72.9062
L34.1875 11.5312
L57.3281 72.9062
L67.5781 72.9062
L39.7969 0
z
" id="DejaVuSans-56"/>
      <path d="
M8.6875 72.9062
L18.6094 72.9062
L18.6094 28.6094
Q18.6094 16.8906 22.8438 11.7344
Q27.0938 6.59375 36.625 6.59375
Q46.0938 6.59375 50.3438 11.7344
Q54.5938 16.8906 54.5938 28.6094
L54.5938 72.9062
L64.5 72.9062
L64.5 27.3906
Q64.5 13.1406 57.4375 5.85938
Q50.3906 -1.42188 36.625 -1.42188
Q22.7969 -1.42188 15.7344 5.85938
Q8.6875 13.1406 8.6875 27.3906
z
" id="DejaVuSans-55"/>
     </defs>
     <g transform="translate(17.6734375 108.7671875)rotate(-90.0)scale(0.1 -0.1)">
      <use xlink:href="#DejaVuSans-55"/>
      <use x="73.193359375" xlink:href="#DejaVuSans-20"/>
      <use x="104.98046875" xlink:href="#DejaVuSans-69"/>
      <use x="132.763671875" xlink:href="#DejaVuSans-6e"/>
      <use x="196.142578125" xlink:href="#DejaVuSans-20"/>
      <use x="227.9296875" xlink:href="#DejaVuSans-56"/>
      <use x="288.587890625" xlink:href="#DejaVuSans-6f"/>
      <use x="349.76953125" xlink:href="#DejaVuSans-6c"/>
      <use x="377.552734375" xlink:href="#DejaVuSans-74"/>
     </g>
    </g>
   </g>
   <g id="patch_3">
    <path d="
M33.7922 10.8
L709.2 10.8" style="fill:none;stroke:#000000;"/>
   </g>
   <g id="patch_4">
    <path d="
M709.2 165.3
L709.2 10.8" style="fill:none;stroke:#000000;"/>
   </g>
   <g id="patch_5">
    <path d="
M33.7922 165.3
L709.2 165.3" style="fill:none;stroke:#000000;"/>
   </g>
   <g id="patch_6">
    <path d="
M33.7922 165.3
L33.7922 10.8" style="fill:none;stroke:#000000;"/>
   </g>
   <g id="legend_1">
    <g id="patch_7">
     <path d="
M625.054 159.3
L703.2 159.3
L703.2 138.086
L625.054 138.086
L625.054 159.3
z
" style="fill:#ffffff;stroke:#000000;"/>
    </g>
    <g id="line2d_20">
     <path d="
M633.454 147.804
L650.254 147.804" style="fill:none;stroke:#0000ff;stroke-linecap:square;stroke-width:2;"/>
    </g>
    <g id="line2d_21"/>
    <g id="text_4">
     <!-- Signal -->
     <defs>
      <path d="
M53.5156 70.5156
L53.5156 60.8906
Q47.9062 63.5781 42.9219 64.8906
Q37.9375 66.2188 33.2969 66.2188
Q25.25 66.2188 20.875 63.0938
Q16.5 59.9688 16.5 54.2031
Q16.5 49.3594 19.4062 46.8906
Q22.3125 44.4375 30.4219 42.9219
L36.375 41.7031
Q47.4062 39.5938 52.6562 34.2969
Q57.9062 29 57.9062 20.125
Q57.9062 9.51562 50.7969 4.04688
Q43.7031 -1.42188 29.9844 -1.42188
Q24.8125 -1.42188 18.9688 -0.25
Q13.1406 0.921875 6.89062 3.21875
L6.89062 13.375
Q12.8906 10.0156 18.6562 8.29688
Q24.4219 6.59375 29.9844 6.59375
Q38.4219 6.59375 43.0156 9.90625
Q47.6094 13.2344 47.6094 19.3906
Q47.6094 24.75 44.3125 27.7812
Q41.0156 30.8125 33.5 32.3281
L27.4844 33.5
Q16.4531 35.6875 11.5156 40.375
Q6.59375 45.0625 6.59375 53.4219
Q6.59375 63.0938 13.4062 68.6562
Q20.2188 74.2188 32.1719 74.2188
Q37.3125 74.2188 42.625 73.2812
Q47.9531 72.3594 53.5156 70.5156" id="DejaVuSans-53"/>
      <path d="
M45.4062 27.9844
Q45.4062 37.75 41.375 43.1094
Q37.3594 48.4844 30.0781 48.4844
Q22.8594 48.4844 18.8281 43.1094
Q14.7969 37.75 14.7969 27.9844
Q14.7969 18.2656 18.8281 12.8906
Q22.8594 7.51562 30.0781 7.51562
Q37.3594 7.51562 41.375 12.8906
Q45.4062 18.2656 45.4062 27.9844
M54.3906 6.78125
Q54.3906 -7.17188 48.1875 -13.9844
Q42 -20.7969 29.2031 -20.7969
Q24.4688 -20.7969 20.2656 -20.0938
Q16.0625 -19.3906 12.1094 -17.9219
L12.1094 -9.1875
Q16.0625 -11.3281 19.9219 -12.3438
Q23.7812 -13.375 27.7812 -13.375
Q36.625 -13.375 41.0156 -8.76562
Q45.4062 -4.15625 45.4062 5.17188
L45.4062 9.625
Q42.625 4.78125 38.2812 2.39062
Q33.9375 0 27.875 0
Q17.8281 0 11.6719 7.65625
Q5.51562 15.3281 5.51562 27.9844
Q5.51562 40.6719 11.6719 48.3281
Q17.8281 56 27.875 56
Q33.9375 56 38.2812 53.6094
Q42.625 51.2188 45.4062 46.3906
L45.4062 54.6875
L54.3906 54.6875
z
" id="DejaVuSans-67"/>
      <path d="
M34.2812 27.4844
Q23.3906 27.4844 19.1875 25
Q14.9844 22.5156 14.9844 16.5
Q14.9844 11.7188 18.1406 8.90625
Q21.2969 6.10938 26.7031 6.10938
Q34.1875 6.10938 38.7031 11.4062
Q43.2188 16.7031 43.2188 25.4844
L43.2188 27.4844
z

M52.2031 31.2031
L52.2031 0
L43.2188 0
L43.2188 8.29688
Q40.1406 3.32812 35.5469 0.953125
Q30.9531 -1.42188 24.3125 -1.42188
Q15.9219 -1.42188 10.9531 3.29688
Q6 8.01562 6 15.9219
Q6 25.1406 12.1719 29.8281
Q18.3594 34.5156 30.6094 34.5156
L43.2188 34.5156
L43.2188 35.4062
Q43.2188 41.6094 39.1406 45
Q35.0625 48.3906 27.6875 48.3906
Q23 48.3906 18.5469 47.2656
Q14.1094 46.1406 10.0156 43.8906
L10.0156 52.2031
Q14.9375 54.1094 19.5781 55.0469
Q24.2188 56 28.6094 56
Q40.4844 56 46.3438 49.8438
Q52.2031 43.7031 52.2031 31.2031" id="DejaVuSans-61"/>
     </defs>
     <g transform="translate(663.45375 152.004375)scale(0.12 -0.12)">
      <use xlink:href="#DejaVuSans-53"/>
      <use x="63.4765625" xlink:href="#DejaVuSans-69"/>
      <use x="91.259765625" xlink:href="#DejaVuSans-67"/>
      <use x="154.736328125" xlink:href="#DejaVuSans-6e"/>
      <use x="218.115234375" xlink:href="#DejaVuSans-61"/>
      <use x="279.39453125" xlink:href="#DejaVuSans-6c"/>
     </g>
    </g>
   </g>
  </g>
  <g id="axes_2">
   <g id="patch_8">
    <path d="
M33.7922 250.2
L709.2 250.2
L709.2 180.6
L33.7922 180.6
z
" style="fill:#ffffff;"/>
   </g>
   <g id="line2d_22">
    <path clip-path="url(#p56a0c14018)" d="
M90.0762 247.88
L193.188 247.88
L193.414 245.56
L193.639 247.88
L208.498 247.88
L208.723 245.56
L208.948 247.88
L211.65 247.88
L211.875 245.56
L212.1 247.88
L225.608 247.88
L225.833 245.56
L226.058 247.88
L228.985 247.88
L229.21 245.56
L229.435 247.88
L371.271 247.88
L371.496 189.88
L372.847 189.88
L373.072 192.2
L373.297 189.88
L373.747 189.88
L373.973 192.2
L374.198 189.88
L380.502 189.88
L380.727 192.2
L380.952 192.2
L381.177 189.88
L383.879 189.88
L384.104 192.2
L384.329 189.88
L385.455 189.88
L385.68 192.2
L385.905 189.88
L387.481 189.88
L387.706 192.2
L387.931 189.88
L388.156 189.88
L388.381 192.2
L388.606 192.2
L388.832 189.88
L389.057 189.88
L389.282 192.2
L389.507 189.88
L393.559 189.88
L393.785 192.2
L394.01 189.88
L395.135 189.88
L395.361 192.2
L395.586 189.88
L397.387 189.88
L397.612 192.2
L397.837 189.88
L398.738 189.88
L398.963 192.2
L399.188 192.2
L399.413 189.88
L399.638 192.2
L399.863 189.88
L400.539 189.88
L400.764 192.2
L400.989 189.88
L402.115 189.88
L402.34 192.2
L402.565 189.88
L407.293 189.88
L407.518 192.2
L407.743 189.88
L407.968 189.88
L408.193 192.2
L408.418 189.88
L411.345 189.88
L411.57 192.2
L412.021 192.2
L412.246 189.88
L412.696 189.88
L412.921 192.2
L413.146 189.88
L413.822 189.88
L414.047 192.2
L414.272 189.88
L414.497 192.2
L414.722 189.88
L419.9 189.88
L420.125 192.2
L420.351 189.88
L420.576 189.88
L420.801 192.2
L421.026 189.88
L425.979 189.88
L426.204 192.2
L426.429 189.88
L426.654 189.88
L426.88 192.2
L427.105 189.88
L428.005 189.88
L428.23 192.2
L428.455 189.88
L431.607 189.88
L431.833 192.2
L432.058 189.88
L432.508 189.88
L432.733 192.2
L432.958 189.88
L434.984 189.88
L435.21 192.2
L435.435 192.2
L435.66 189.88
L436.11 189.88
L436.335 192.2
L436.56 189.88
L437.911 189.88
L438.136 192.2
L438.361 189.88
L439.262 189.88
L439.487 192.2
L439.712 189.88
L440.163 189.88
L440.388 192.2
L440.613 189.88
L440.838 192.2
L441.063 189.88
L441.513 189.88
L441.739 192.2
L441.964 192.2
L442.189 189.88
L442.864 189.88
L443.089 192.2
L443.314 189.88
L443.54 192.2
L443.765 189.88
L443.99 192.2
L444.215 189.88
L448.718 189.88
L448.943 192.2
L449.168 189.88
L452.095 189.88
L452.32 192.2
L452.545 189.88
L453.896 189.88
L454.121 192.2
L454.346 189.88
L454.571 189.88
L454.796 192.2
L455.022 189.88
L455.472 189.88
L455.697 192.2
L455.922 189.88
L456.372 189.88
L456.597 192.2
L456.823 189.88
L457.048 192.2
L457.273 189.88
L457.498 192.2
L457.723 189.88
L458.173 189.88
L458.399 192.2
L458.624 189.88
L458.849 192.2
L459.074 189.88
L462.451 189.88
L462.676 192.2
L462.901 189.88
L465.153 189.88
L465.378 192.2
L465.603 189.88
L466.729 189.88
L466.954 192.2
L467.179 189.88
L469.43 189.88
L469.655 192.2
L469.88 189.88
L471.006 189.88
L471.231 192.2
L471.456 189.88
L473.483 189.88
L473.708 192.2
L473.933 189.88
L474.833 189.88
L475.059 192.2
L475.284 192.2
L475.509 189.88
L475.734 192.2
L475.959 189.88
L476.184 192.2
L476.409 189.88
L476.635 192.2
L476.86 189.88
L477.76 189.88
L477.985 192.2
L478.211 189.88
L480.237 189.88
L480.462 192.2
L480.687 189.88
L480.912 192.2
L481.588 192.2
L481.813 189.88
L485.415 189.88
L485.64 192.2
L485.865 189.88
L486.766 189.88
L486.991 192.2
L487.216 192.2
L487.441 189.88
L487.666 189.88
L487.891 192.2
L488.117 189.88
L488.567 189.88
L488.792 192.2
L489.017 192.2
L489.242 189.88
L489.692 189.88
L489.918 192.2
L490.143 189.88
L493.295 189.88
L493.52 192.2
L493.745 189.88
L493.97 192.2
L494.195 189.88
L494.42 192.2
L494.645 189.88
L494.871 192.2
L495.096 192.2
L495.321 189.88
L495.546 189.88
L495.771 192.2
L495.996 192.2
L496.221 189.88
L498.248 189.88
L498.473 192.2
L498.698 189.88
L500.049 189.88
L500.274 192.2
L500.499 189.88
L500.949 189.88
L501.174 192.2
L501.4 189.88
L501.85 189.88
L502.075 192.2
L502.3 189.88
L503.201 189.88
L503.426 192.2
L503.651 189.88
L503.876 192.2
L504.101 189.88
L504.777 189.88
L505.002 192.2
L505.227 189.88
L505.452 189.88
L505.677 192.2
L505.902 189.88
L511.531 189.88
L511.756 192.2
L511.981 192.2
L512.206 189.88
L514.908 189.88
L515.133 192.2
L515.358 189.88
L516.033 189.88
L516.259 192.2
L516.484 189.88
L516.934 189.88
L517.159 192.2
L517.384 189.88
L517.609 192.2
L517.834 189.88
L520.086 189.88
L520.311 192.2
L520.536 189.88
L524.363 189.88
L524.589 192.2
L524.814 189.88
L529.091 189.88
L529.316 192.2
L529.542 189.88
L532.018 189.88
L532.243 192.2
L532.693 192.2
L532.919 189.88
L535.17 189.88
L535.395 192.2
L535.62 192.2
L535.845 189.88
L536.296 189.88
L536.521 192.2
L536.746 189.88
L538.097 189.88
L538.322 192.2
L538.547 189.88
L539.448 189.88
L539.673 192.2
L539.898 189.88
L540.348 189.88
L540.573 192.2
L540.798 189.88
L541.249 189.88
L541.474 192.2
L541.699 192.2
L541.924 189.88
L542.374 189.88
L542.599 192.2
L542.825 192.2
L543.05 189.88
L543.275 189.88
L543.5 192.2
L543.725 189.88
L543.95 192.2
L544.175 189.88
L544.626 189.88
L544.851 192.2
L545.076 192.2
L545.301 189.88
L545.526 192.2
L545.751 189.88
L545.976 189.88
L546.202 192.2
L546.427 189.88
L546.652 189.88
L546.877 192.2
L547.102 189.88
L547.327 192.2
L547.552 192.2
L547.778 189.88
L548.228 189.88
L548.453 192.2
L548.678 189.88
L549.579 189.88
L549.804 192.2
L550.029 192.2
L550.254 189.88
L550.479 192.2
L550.704 189.88
L552.505 189.88
L552.731 192.2
L552.956 189.88
L553.406 189.88
L553.631 192.2
L553.856 192.2
L554.081 189.88
L554.306 189.88
L554.532 192.2
L554.757 189.88
L554.982 189.88
L555.207 192.2
L555.657 192.2
L555.882 189.88
L562.186 189.88
L562.411 192.2
L562.637 189.88
L563.087 189.88
L563.312 192.2
L563.537 189.88
L566.689 189.88
L566.914 192.2
L567.139 189.88
L568.265 189.88
L568.49 192.2
L568.715 189.88
L570.291 189.88
L570.516 192.2
L570.741 189.88
L571.642 189.88
L571.867 192.2
L572.092 189.88
L572.768 189.88
L572.993 192.2
L573.218 189.88
L574.344 189.88
L574.569 192.2
L574.794 189.88
L575.244 189.88
L575.469 192.2
L575.694 189.88
L575.92 192.2
L576.145 189.88
L577.27 189.88
L577.495 192.2
L577.721 189.88
L580.873 189.88
L581.098 192.2
L581.323 189.88
L581.548 189.88
L581.773 192.2
L581.998 189.88
L586.051 189.88
L586.276 192.2
L586.501 189.88
L586.726 192.2
L586.951 192.2
L587.176 189.88
L587.627 189.88
L587.852 192.2
L588.077 189.88
L589.653 189.88
L589.878 192.2
L590.103 189.88
L593.705 189.88
L593.93 192.2
L594.156 189.88
L594.831 189.88
L595.056 192.2
L595.281 189.88
L595.957 189.88
L596.182 192.2
L596.407 189.88
L596.632 189.88
L596.857 192.2
L597.082 189.88
L597.307 192.2
L597.533 189.88
L599.784 189.88
L600.009 192.2
L600.234 192.2
L600.459 189.88
L600.684 189.88
L600.91 192.2
L601.135 189.88
L601.36 192.2
L601.585 189.88
L601.81 189.88
L602.035 192.2
L602.26 189.88
L603.836 189.88
L604.062 192.2
L604.287 189.88
L607.213 189.88
L607.439 192.2
L607.664 189.88
L610.14 189.88
L610.365 192.2
L610.59 189.88
L611.041 189.88
L611.266 192.2
L611.491 189.88
L613.742 189.88
L613.967 192.2
L614.193 189.88
L614.868 189.88
L615.093 192.2
L615.318 189.88
L618.47 189.88
L618.695 192.2
L618.92 189.88
L622.523 189.88
L622.748 192.2
L622.973 189.88
L623.198 192.2
L623.423 189.88
L623.648 189.88
L623.873 192.2
L624.099 189.88
L625.449 189.88
L625.675 192.2
L625.9 189.88
L626.125 189.88
L626.35 192.2
L626.575 192.2
L626.8 189.88
L627.025 192.2
L627.251 189.88
L627.476 189.88
L627.701 192.2
L627.926 189.88
L628.151 192.2
L628.376 189.88
L629.952 189.88
L630.177 192.2
L630.402 189.88
L631.303 189.88
L631.528 192.2
L631.753 189.88
L632.879 189.88
L633.104 192.2
L633.329 189.88
L633.554 192.2
L633.779 189.88
L635.355 189.88
L635.581 192.2
L635.806 189.88
L637.382 189.88
L637.607 192.2
L637.832 189.88
L638.057 192.2
L638.282 189.88
L638.507 192.2
L638.732 189.88
L638.958 189.88
L639.183 192.2
L639.408 189.88
L641.434 189.88
L641.659 192.2
L641.884 189.88
L643.235 189.88
L643.46 192.2
L643.685 189.88
L643.911 189.88
L644.136 192.2
L644.361 189.88
L645.937 189.88
L646.162 192.2
L647.062 192.2
L647.288 189.88
L647.513 189.88
L647.738 192.2
L647.963 189.88
L652.691 189.88
L652.691 189.88" style="fill:none;stroke:#008000;stroke-linecap:square;stroke-width:2;"/>
   </g>
   <g id="matplotlib.axis_3">
    <g id="xtick_8">
     <g id="line2d_23">
      <g>
       <use style="stroke:#000000;stroke-width:0.5;" x="146.36015625" xlink:href="#m93b0483c22" y="250.2"/>
      </g>
     </g>
     <g id="line2d_24">
      <g>
       <use style="stroke:#000000;stroke-width:0.5;" x="146.36015625" xlink:href="#m741efc42ff" y="180.6"/>
      </g>
     </g>
     <g id="text_5">
      <!-- −0.01 -->
      <defs>
       <path d="
M12.4062 8.29688
L28.5156 8.29688
L28.5156 63.9219
L10.9844 60.4062
L10.9844 69.3906
L28.4219 72.9062
L38.2812 72.9062
L38.2812 8.29688
L54.3906 8.29688
L54.3906 0
L12.4062 0
z
" id="DejaVuSans-31"/>
       <path d="
M10.6875 12.4062
L21 12.4062
L21 0
L10.6875 0
z
" id="DejaVuSans-2e"/>
       <path d="
M10.5938 35.5
L73.1875 35.5
L73.1875 27.2031
L10.5938 27.2031
z
" id="DejaVuSans-2212"/>
      </defs>
      <g transform="translate(132.02890625 261.7984375)scale(0.1 -0.1)">
       <use xlink:href="#DejaVuSans-2212"/>
       <use x="83.7890625" xlink:href="#DejaVuSans-30"/>
       <use x="147.412109375" xlink:href="#DejaVuSans-2e"/>
       <use x="179.19921875" xlink:href="#DejaVuSans-30"/>
       <use x="242.822265625" xlink:href="#DejaVuSans-31"/>
      </g>
     </g>
    </g>
    <g id="xtick_9">
     <g id="line2d_25">
      <g>
       <use style="stroke:#000000;stroke-width:0.5;" x="371.49609375" xlink:href="#m93b0483c22" y="250.2"/>
      </g>
     </g>
     <g id="line2d_26">
      <g>
       <use style="stroke:#000000;stroke-width:0.5;" x="371.49609375" xlink:href="#m741efc42ff" y="180.6"/>
      </g>
     </g>
     <g id="text_6">
      <!-- 0.00 -->
      <g transform="translate(361.025 261.7984375)scale(0.1 -0.1)">
       <use xlink:href="#DejaVuSans-30"/>
       <use x="63.623046875" xlink:href="#DejaVuSans-2e"/>
       <use x="95.41015625" xlink:href="#DejaVuSans-30"/>
       <use x="159.033203125" xlink:href="#DejaVuSans-30"/>
      </g>
     </g>
    </g>
    <g id="xtick_10">
     <g id="line2d_27">
      <g>
       <use style="stroke:#000000;stroke-width:0.5;" x="596.63203125" xlink:href="#m93b0483c22" y="250.2"/>
      </g>
     </g>
     <g id="line2d_28">
      <g>
       <use style="stroke:#000000;stroke-width:0.5;" x="596.63203125" xlink:href="#m741efc42ff" y="180.6"/>
      </g>
     </g>
     <g id="text_7">
      <!-- 0.01 -->
      <g transform="translate(586.290625 261.7984375)scale(0.1 -0.1)">
       <use xlink:href="#DejaVuSans-30"/>
       <use x="63.623046875" xlink:href="#DejaVuSans-2e"/>
       <use x="95.41015625" xlink:href="#DejaVuSans-30"/>
       <use x="159.033203125" xlink:href="#DejaVuSans-31"/>
      </g>
     </g>
    </g>
    <g id="text_8">
     <!-- t in Sekunden -->
     <defs>
      <path d="
M8.5 21.5781
L8.5 54.6875
L17.4844 54.6875
L17.4844 21.9219
Q17.4844 14.1562 20.5 10.2656
Q23.5312 6.39062 29.5938 6.39062
Q36.8594 6.39062 41.0781 11.0312
Q45.3125 15.6719 45.3125 23.6875
L45.3125 54.6875
L54.2969 54.6875
L54.2969 0
L45.3125 0
L45.3125 8.40625
Q42.0469 3.42188 37.7188 1
Q33.4062 -1.42188 27.6875 -1.42188
Q18.2656 -1.42188 13.375 4.4375
Q8.5 10.2969 8.5 21.5781
M31.1094 56
z
" id="DejaVuSans-75"/>
      <path d="
M45.4062 46.3906
L45.4062 75.9844
L54.3906 75.9844
L54.3906 0
L45.4062 0
L45.4062 8.20312
Q42.5781 3.32812 38.25 0.953125
Q33.9375 -1.42188 27.875 -1.42188
Q17.9688 -1.42188 11.7344 6.48438
Q5.51562 14.4062 5.51562 27.2969
Q5.51562 40.1875 11.7344 48.0938
Q17.9688 56 27.875 56
Q33.9375 56 38.25 53.625
Q42.5781 51.2656 45.4062 46.3906
M14.7969 27.2969
Q14.7969 17.3906 18.875 11.75
Q22.9531 6.10938 30.0781 6.10938
Q37.2031 6.10938 41.2969 11.75
Q45.4062 17.3906 45.4062 27.2969
Q45.4062 37.2031 41.2969 42.8438
Q37.2031 48.4844 30.0781 48.4844
Q22.9531 48.4844 18.875 42.8438
Q14.7969 37.2031 14.7969 27.2969" id="DejaVuSans-64"/>
      <path d="
M56.2031 29.5938
L56.2031 25.2031
L14.8906 25.2031
Q15.4844 15.9219 20.4844 11.0625
Q25.4844 6.20312 34.4219 6.20312
Q39.5938 6.20312 44.4531 7.46875
Q49.3125 8.73438 54.1094 11.2812
L54.1094 2.78125
Q49.2656 0.734375 44.1875 -0.34375
Q39.1094 -1.42188 33.8906 -1.42188
Q20.7969 -1.42188 13.1562 6.1875
Q5.51562 13.8125 5.51562 26.8125
Q5.51562 40.2344 12.7656 48.1094
Q20.0156 56 32.3281 56
Q43.3594 56 49.7812 48.8906
Q56.2031 41.7969 56.2031 29.5938
M47.2188 32.2344
Q47.125 39.5938 43.0938 43.9844
Q39.0625 48.3906 32.4219 48.3906
Q24.9062 48.3906 20.3906 44.1406
Q15.875 39.8906 15.1875 32.1719
z
" id="DejaVuSans-65"/>
      <path d="
M9.07812 75.9844
L18.1094 75.9844
L18.1094 31.1094
L44.9219 54.6875
L56.3906 54.6875
L27.3906 29.1094
L57.625 0
L45.9062 0
L18.1094 26.7031
L18.1094 0
L9.07812 0
z
" id="DejaVuSans-6b"/>
     </defs>
     <g transform="translate(337.47734375 276.4765625)scale(0.1 -0.1)">
      <use xlink:href="#DejaVuSans-74"/>
      <use x="39.208984375" xlink:href="#DejaVuSans-20"/>
      <use x="70.99609375" xlink:href="#DejaVuSans-69"/>
      <use x="98.779296875" xlink:href="#DejaVuSans-6e"/>
      <use x="162.158203125" xlink:href="#DejaVuSans-20"/>
      <use x="193.9453125" xlink:href="#DejaVuSans-53"/>
      <use x="257.421875" xlink:href="#DejaVuSans-65"/>
      <use x="318.9453125" xlink:href="#DejaVuSans-6b"/>
      <use x="373.73046875" xlink:href="#DejaVuSans-75"/>
      <use x="437.109375" xlink:href="#DejaVuSans-6e"/>
      <use x="500.48828125" xlink:href="#DejaVuSans-64"/>
      <use x="563.96484375" xlink:href="#DejaVuSans-65"/>
      <use x="625.48828125" xlink:href="#DejaVuSans-6e"/>
     </g>
    </g>
   </g>
   <g id="matplotlib.axis_4">
    <g id="ytick_3">
     <g id="line2d_29">
      <g>
       <use style="stroke:#000000;stroke-width:0.5;" x="33.7921875" xlink:href="#m728421d6d4" y="250.2"/>
      </g>
     </g>
     <g id="line2d_30">
      <g>
       <use style="stroke:#000000;stroke-width:0.5;" x="709.2" xlink:href="#mcb0005524f" y="250.2"/>
      </g>
     </g>
     <g id="text_9">
      <!-- 0 -->
      <g transform="translate(24.753125 252.959375)scale(0.1 -0.1)">
       <use xlink:href="#DejaVuSans-30"/>
      </g>
     </g>
    </g>
    <g id="ytick_4">
     <g id="line2d_31">
      <g>
       <use style="stroke:#000000;stroke-width:0.5;" x="33.7921875" xlink:href="#m728421d6d4" y="192.2"/>
      </g>
     </g>
     <g id="line2d_32">
      <g>
       <use style="stroke:#000000;stroke-width:0.5;" x="709.2" xlink:href="#mcb0005524f" y="192.2"/>
      </g>
     </g>
     <g id="text_10">
      <!-- 5 -->
      <g transform="translate(25.075 194.959375)scale(0.1 -0.1)">
       <use xlink:href="#DejaVuSans-35"/>
      </g>
     </g>
    </g>
    <g id="text_11">
     <!-- U in Volt -->
     <g transform="translate(17.6734375 236.1171875)rotate(-90.0)scale(0.1 -0.1)">
      <use xlink:href="#DejaVuSans-55"/>
      <use x="73.193359375" xlink:href="#DejaVuSans-20"/>
      <use x="104.98046875" xlink:href="#DejaVuSans-69"/>
      <use x="132.763671875" xlink:href="#DejaVuSans-6e"/>
      <use x="196.142578125" xlink:href="#DejaVuSans-20"/>
      <use x="227.9296875" xlink:href="#DejaVuSans-56"/>
      <use x="288.587890625" xlink:href="#DejaVuSans-6f"/>
      <use x="349.76953125" xlink:href="#DejaVuSans-6c"/>
      <use x="377.552734375" xlink:href="#DejaVuSans-74"/>
     </g>
    </g>
   </g>
   <g id="patch_9">
    <path d="
M33.7922 180.6
L709.2 180.6" style="fill:none;stroke:#000000;"/>
   </g>
   <g id="patch_10">
    <path d="
M709.2 250.2
L709.2 180.6" style="fill:none;stroke:#000000;"/>
   </g>
   <g id="patch_11">
    <path d="
M33.7922 250.2
L709.2 250.2" style="fill:none;stroke:#000000;"/>
   </g>
   <g id="patch_12">
    <path d="
M33.7922 250.2
L33.7922 180.6" style="fill:none;stroke:#000000;"/>
   </g>
   <g id="legend_2">
    <g id="patch_13">
     <path d="
M618.585 244.2
L703.2 244.2
L703.2 222.986
L618.585 222.986
L618.585 244.2
z
" style="fill:#ffffff;stroke:#000000;"/>
    </g>
    <g id="line2d_33">
     <path d="
M626.985 232.704
L643.785 232.704" style="fill:none;stroke:#008000;stroke-linecap:square;stroke-width:2;"/>
    </g>
    <g id="line2d_34"/>
    <g id="text_12">
     <!-- Trigger -->
     <defs>
      <path d="
M41.1094 46.2969
Q39.5938 47.1719 37.8125 47.5781
Q36.0312 48 33.8906 48
Q26.2656 48 22.1875 43.0469
Q18.1094 38.0938 18.1094 28.8125
L18.1094 0
L9.07812 0
L9.07812 54.6875
L18.1094 54.6875
L18.1094 46.1875
Q20.9531 51.1719 25.4844 53.5781
Q30.0312 56 36.5312 56
Q37.4531 56 38.5781 55.875
Q39.7031 55.7656 41.0625 55.5156
z
" id="DejaVuSans-72"/>
      <path d="
M-0.296875 72.9062
L61.375 72.9062
L61.375 64.5938
L35.5 64.5938
L35.5 0
L25.5938 0
L25.5938 64.5938
L-0.296875 64.5938
z
" id="DejaVuSans-54"/>
     </defs>
     <g transform="translate(656.985 236.904375)scale(0.12 -0.12)">
      <use xlink:href="#DejaVuSans-54"/>
      <use x="46.333984375" xlink:href="#DejaVuSans-72"/>
      <use x="87.447265625" xlink:href="#DejaVuSans-69"/>
      <use x="115.23046875" xlink:href="#DejaVuSans-67"/>
      <use x="178.70703125" xlink:href="#DejaVuSans-67"/>
      <use x="242.18359375" xlink:href="#DejaVuSans-65"/>
      <use x="303.70703125" xlink:href="#DejaVuSans-72"/>
     </g>
    </g>
   </g>
  </g>
 </g>
 <defs>
  <clipPath id="p56a0c14018">
   <rect height="69.6" width="675.4078125" x="33.7921875" y="180.6"/>
  </clipPath>
  <clipPath id="p579b2931fc">
   <rect height="154.5" width="675.4078125" x="33.7921875" y="10.8"/>
  </clipPath>
 </defs>
</svg>
